<svg xmlns="http://www.w3.org/2000/svg" width="341.505" height="332.335" viewBox="0 0 341.505 332.335">
  <g id="Group_922" data-name="Group 922" transform="translate(-10757.999 1700)">
    <g id="Group_888" data-name="Group 888" transform="translate(10758.999 -1700)">
      <g id="Group_220" data-name="Group 220" transform="translate(0 0)">
        <g id="Group_219" data-name="Group 219">
          <rect id="Rectangle_1639" data-name="Rectangle 1639" width="81.758" height="3.755" transform="matrix(0.566, -0.825, 0.825, 0.566, 39.766, 190.246)" fill="rgba(249,195,61,0.2)"/>
          <path id="Path_472" data-name="Path 472" d="M582.176,1334.75l-64.657-31.943,19.093-27.838,3.1,2.124-16.643,24.266,60.774,30.026Z" transform="translate(-517.519 -1054.582)" fill="rgba(249,195,61,0.2)"/>
          <path id="Path_473" data-name="Path 473" d="M913.258,1539.022l-34.691-17.139,1.663-3.367,33.029,16.317,31.57-15.6,1.663,3.366Z" transform="translate(-743.005 -1206.687)" fill="rgba(249,195,61,0.2)"/>
          <path id="Path_474" data-name="Path 474" d="M1326.238,1275.548l-1.663-3.367,27.907-13.787-34.36-50.095,3.1-2.124,36.81,53.667Z" transform="translate(-1017.523 -1011.619)" fill="rgba(249,195,61,0.2)"/>
          <path id="Path_475" data-name="Path 475" d="M872.684,745.618l-3.1-2.124L907.65,688l37.311,54.4-3.1,2.124L907.65,694.638Z" transform="translate(-737.398 -688)" fill="rgba(249,195,61,0.2)"/>
          <rect id="Rectangle_1640" data-name="Rectangle 1640" width="3.755" height="88.993" transform="matrix(0.443, -0.897, 0.897, 0.443, 61.167, 264.623)" fill="rgba(249,195,61,0.2)"/>
          <path id="Path_476" data-name="Path 476" d="M1280.286,1269.6l-1.663-3.366,29.3-14.474-31.846-46.431,3.1-2.124,34.3,50Z" transform="translate(-991.262 -1009.766)" fill="rgba(249,195,61,0.2)"/>
          <rect id="Rectangle_1641" data-name="Rectangle 1641" width="3.755" height="140.062" transform="matrix(0.825, -0.566, 0.566, 0.825, 205.588, 80.063)" fill="rgba(249,195,61,0.2)"/>
          <g id="Group_218" data-name="Group 218" transform="translate(37.436 42.816)">
            <g id="Group_216" data-name="Group 216" transform="translate(0 170.62)">
              <path id="Path_477" data-name="Path 477" d="M709.957,1368.367a.187.187,0,0,1-.083-.019l-3.029-1.5a.188.188,0,1,1,.166-.336l3.03,1.5a.188.188,0,0,1-.083.356Z" transform="translate(-673.129 -1325.179)" fill="rgba(249,195,61,0.2)"/>
              <path id="Path_478" data-name="Path 478" d="M660.255,1343.812a.179.179,0,0,1-.083-.02l-6.1-3.012a.188.188,0,1,1,.166-.336l6.1,3.012a.188.188,0,0,1-.083.356Zm-12.2-6.025a.187.187,0,0,1-.083-.02l-6.1-3.012a.188.188,0,0,1,.166-.337l6.1,3.013a.188.188,0,0,1-.084.356Z" transform="translate(-632.556 -1305.134)" fill="rgba(249,195,61,0.2)"/>
              <path id="Path_479" data-name="Path 479" d="M620.531,1319.625a.191.191,0,0,1-.083-.019l-3.224-1.593,2.034-2.965a.188.188,0,0,1,.31.213l-1.789,2.608,2.836,1.4a.188.188,0,0,1-.083.356Z" transform="translate(-617.224 -1292.998)" fill="rgba(249,195,61,0.2)"/>
              <path id="Path_480" data-name="Path 480" d="M634.421,1287.676a.185.185,0,0,1-.106-.033.187.187,0,0,1-.048-.261l4.385-6.394a.188.188,0,1,1,.31.212l-4.385,6.394A.187.187,0,0,1,634.421,1287.676Z" transform="translate(-627.847 -1271.726)" fill="rgba(249,195,61,0.2)"/>
              <path id="Path_481" data-name="Path 481" d="M657.781,1259.617a.187.187,0,0,1-.154-.294l1.911-2.787a.188.188,0,1,1,.31.212l-1.911,2.787A.187.187,0,0,1,657.781,1259.617Z" transform="translate(-642.436 -1256.455)" fill="rgba(249,195,61,0.2)"/>
            </g>
            <g id="Group_217" data-name="Group 217" transform="translate(36.64 213.432)">
              <path id="Path_482" data-name="Path 482" d="M885.966,1455.323a.186.186,0,0,1-.083-.02l-3.03-1.5a.188.188,0,0,1,.166-.337l3.03,1.5a.188.188,0,0,1-.083.356Z" transform="translate(-819.693 -1422.298)" fill="rgba(249,195,61,0.2)"/>
              <path id="Path_483" data-name="Path 483" d="M787.515,1406.685a.19.19,0,0,1-.083-.02l-6.669-3.3a.188.188,0,1,1,.166-.336l6.669,3.3a.188.188,0,0,1-.083.356Zm-13.339-6.591a.186.186,0,0,1-.083-.019l-6.669-3.295a.188.188,0,1,1,.166-.337l6.669,3.3a.187.187,0,0,1-.083.355Zm-13.339-6.589a.194.194,0,0,1-.083-.019l-6.669-3.3a.188.188,0,0,1,.166-.337l6.669,3.3a.188.188,0,0,1-.083.356Zm-13.339-6.59a.2.2,0,0,1-.083-.02l-6.669-3.3a.188.188,0,0,1,.166-.337l6.67,3.295a.188.188,0,0,1-.083.357Z" transform="translate(-730.941 -1378.452)" fill="rgba(249,195,61,0.2)"/>
              <path id="Path_484" data-name="Path 484" d="M718.026,1372.353a.194.194,0,0,1-.083-.02l-3.03-1.5a.188.188,0,0,1,.166-.337l3.03,1.5a.188.188,0,0,1-.083.356Z" transform="translate(-714.808 -1370.481)" fill="rgba(249,195,61,0.2)"/>
            </g>
            <path id="Path_485" data-name="Path 485" d="M920.253,1465.5l-30.485-15.061,1.164-2.357,29.321,14.486,37.5-18.524,1.164,2.356Z" transform="translate(-787.437 -1202.991)" fill="rgba(249,195,61,0.2)"/>
            <rect id="Rectangle_1642" data-name="Rectangle 1642" width="53.676" height="2.628" transform="translate(189.733 231.457) rotate(-26.29)" fill="rgba(249,195,61,0.2)"/>
            <path id="Path_486" data-name="Path 486" d="M1242.127,1248.86a.187.187,0,0,1-.084-.356l6.059-2.994a.188.188,0,1,1,.167.337l-6.06,2.994A.182.182,0,0,1,1242.127,1248.86Zm12.118-5.987a.187.187,0,0,1-.083-.356l6.059-2.993a.188.188,0,1,1,.166.336l-6.059,2.994A.186.186,0,0,1,1254.245,1242.873Zm10.15-6.5a.189.189,0,0,1-.155-.082l-3.822-5.573a.188.188,0,0,1,.31-.212l3.823,5.573a.189.189,0,0,1-.049.261A.183.183,0,0,1,1264.4,1236.372Zm-7.645-11.147a.185.185,0,0,1-.155-.082l-3.822-5.573a.188.188,0,1,1,.309-.213l3.823,5.573a.188.188,0,0,1-.155.294Zm-7.646-11.146a.187.187,0,0,1-.155-.082l-3.823-5.574a.188.188,0,0,1,.31-.212l3.822,5.573a.188.188,0,0,1-.048.261A.191.191,0,0,1,1249.1,1214.079Zm-7.645-11.147a.188.188,0,0,1-.155-.082l-3.823-5.573a.188.188,0,1,1,.31-.212l3.822,5.573a.188.188,0,0,1-.048.261A.185.185,0,0,1,1241.459,1202.932Zm-7.645-11.146a.189.189,0,0,1-.156-.082l-3.823-5.574a.188.188,0,1,1,.31-.212l3.822,5.573a.188.188,0,0,1-.048.261A.192.192,0,0,1,1233.814,1191.786Z" transform="translate(-999.801 -1041.732)" fill="rgba(249,195,61,0.2)"/>
            <path id="Path_487" data-name="Path 487" d="M1121.765,1028.419a.186.186,0,0,1-.155-.081l-3.823-5.573a.188.188,0,0,1,.31-.212l3.823,5.574a.187.187,0,0,1-.155.293Zm-7.645-11.146a.186.186,0,0,1-.155-.082l-3.823-5.573a.188.188,0,1,1,.31-.212l3.822,5.573a.188.188,0,0,1-.155.294Zm-7.645-11.147a.187.187,0,0,1-.155-.082l-3.823-5.573a.188.188,0,0,1,.31-.213l3.822,5.573a.188.188,0,0,1-.154.294Zm-7.646-11.147a.187.187,0,0,1-.155-.082l-3.823-5.573a.188.188,0,1,1,.309-.212l3.823,5.573a.188.188,0,0,1-.155.294Zm-7.645-11.147a.186.186,0,0,1-.154-.082l-3.823-5.573a.188.188,0,0,1,.31-.212l3.823,5.573a.188.188,0,0,1-.155.294Zm-7.646-11.147a.188.188,0,0,1-.155-.082l-3.823-5.573a.188.188,0,0,1,.31-.212l3.822,5.573a.187.187,0,0,1-.048.261A.19.19,0,0,1,1083.537,972.685Zm-7.645-11.147a.188.188,0,0,1-.155-.082l-3.822-5.573a.188.188,0,0,1,.309-.213l3.822,5.573a.188.188,0,0,1-.154.294Zm-7.646-11.147a.19.19,0,0,1-.156-.082l-3.822-5.573a.188.188,0,0,1,.31-.213l3.822,5.573a.188.188,0,0,1-.048.261A.191.191,0,0,1,1068.247,950.392Zm-7.646-11.147a.187.187,0,0,1-.155-.081l-3.823-5.573a.188.188,0,1,1,.31-.213l3.823,5.573a.189.189,0,0,1-.048.261A.191.191,0,0,1,1060.6,939.244Z" transform="translate(-891.624 -884.011)" fill="rgba(249,195,61,0.2)"/>
            <path id="Path_488" data-name="Path 488" d="M876.955,856.168l-2.167-1.487L910.9,802.034l33.422,48.729-2.167,1.487L910.9,806.681Z" transform="translate(-778.081 -802.034)" fill="rgba(249,195,61,0.2)"/>
            <rect id="Rectangle_1643" data-name="Rectangle 1643" width="62.382" height="2.628" transform="translate(39.504 136.05) rotate(-55.557)" fill="rgba(249,195,61,0.2)"/>
            <rect id="Rectangle_1644" data-name="Rectangle 1644" width="41.247" height="2.628" transform="translate(16.174 170.065) rotate(-55.557)" fill="rgba(249,195,61,0.2)"/>
          </g>
          <path id="Path_489" data-name="Path 489" d="M789.707,1096.069l-.415-.206-108.553-53.629L789.707,883.36l108.969,158.874Zm-106.2-54.558,106.2,52.464,106.2-52.464-106.2-154.832Z" transform="translate(-619.455 -810.009)" fill="rgba(249,195,61,0.2)" opacity="0.1"/>
          <path id="Path_490" data-name="Path 490" d="M822.918,1120.742l-89-43.971.368-.536,88.635-129.228,89,129.764-.582.288Zm-87.339-44.406,87.339,43.149,87.339-43.149L822.918,949Z" transform="translate(-652.665 -849.759)" fill="rgba(249,195,61,0.2)" opacity="0.08"/>
          <path id="Path_491" data-name="Path 491" d="M858.9,1147.472l-67.373-33.285,67.373-98.229,67.374,98.229Zm-65.709-33.72,65.709,32.463,65.71-32.463-65.71-95.8Z" transform="translate(-688.644 -892.821)" fill="rgba(249,195,61,0.2)" opacity="0.06"/>
          <path id="Path_492" data-name="Path 492" d="M901.331,1179l-41.861-20.681,41.861-61.034,41.862,61.034Zm-40.2-21.115,40.2,19.859,40.2-19.859-40.2-58.608Z" transform="translate(-731.079 -943.612)" fill="rgba(249,195,61,0.2)" opacity="0.04"/>
          <path id="Path_493" data-name="Path 493" d="M938.232,1206.413l-19.678-9.721L938.232,1168l19.677,28.689Zm-19.123-9.866,19.123,9.447,19.123-9.447-19.123-27.88Z" transform="translate(-767.979 -987.778)" fill="rgba(249,195,61,0.2)" opacity="0.03"/>
        </g>
      </g>
    </g>
    <g id="Group_889" data-name="Group 889" transform="translate(10812.401 -1650.814)">
      <g id="Group_225" data-name="Group 225" transform="translate(90.052 198.283)">
        <g id="Group_222" data-name="Group 222">
          <path id="Path_494" data-name="Path 494" d="M947.258,1359.657H905.866a6.278,6.278,0,1,1,0-12.557h41.392a6.278,6.278,0,1,1,0,12.557Z" transform="translate(-899.588 -1347.1)" fill="#f9c33d" stroke="#fff" stroke-width="1.5"/>
        </g>
        <g id="Group_223" data-name="Group 223" transform="translate(0 18.875)">
          <path id="Path_495" data-name="Path 495" d="M947.258,1409.928H905.866a6.278,6.278,0,1,1,0-12.557h41.392a6.278,6.278,0,1,1,0,12.557Z" transform="translate(-899.588 -1397.371)" fill="#f9c33d" stroke="#fff" stroke-width="1.5"/>
        </g>
        <g id="Group_224" data-name="Group 224" transform="translate(9.275 36.986)">
          <path id="Path_496" data-name="Path 496" d="M953.411,1458.165H930.569a6.279,6.279,0,0,1,0-12.558h22.841a6.279,6.279,0,0,1,0,12.558Z" transform="translate(-924.291 -1445.608)" fill="#f9c33d" stroke="#fff" stroke-width="1.5"/>
        </g>
      </g>
      <g id="Group_240" data-name="Group 240" transform="translate(0 0)">
        <g id="Group_226" data-name="Group 226" transform="translate(123.209 79.534)">
          <path id="Path_497" data-name="Path 497" d="M1016.208,1073.475a6.279,6.279,0,0,1-6.279-6.278,25.175,25.175,0,0,0-17.645-24.1,6.278,6.278,0,0,1,3.785-11.973,37.685,37.685,0,0,1,26.418,36.077A6.279,6.279,0,0,1,1016.208,1073.475Z" transform="translate(-987.897 -1030.827)" fill="#f9c33d" stroke="#fff" stroke-width="1.5"/>
        </g>
        <g id="Group_227" data-name="Group 227" transform="translate(53.652 55.365)">
          <path id="Path_498" data-name="Path 498" d="M840.777,1102.738a6.279,6.279,0,0,1-6.236-5.62c-.558-5.28-4.882-10.383-10.358-16.845-9.092-10.729-21.543-25.421-21.543-50.46a63.356,63.356,0,1,1,126.712,0c0,25.038-12.452,39.732-21.543,50.46-5.476,6.462-9.8,11.565-10.358,16.844a6.279,6.279,0,1,1-12.488-1.318c.965-9.128,6.94-16.179,13.266-23.644,8.7-10.27,18.566-21.908,18.566-42.342a50.8,50.8,0,0,0-101.6,0c0,20.433,9.863,32.073,18.566,42.342,6.326,7.465,12.3,14.517,13.266,23.644a6.28,6.28,0,0,1-5.585,6.9A6.488,6.488,0,0,1,840.777,1102.738Z" transform="translate(-802.641 -966.457)" fill="#f9c33d" stroke="#fff" stroke-width="1.5"/>
        </g>
        <g id="Group_239" data-name="Group 239">
          <g id="Group_229" data-name="Group 229" transform="translate(110.572)">
            <g id="Group_228" data-name="Group 228">
              <path id="Path_499" data-name="Path 499" d="M960.52,853.911a6.278,6.278,0,0,1-6.279-6.279V825.278a6.278,6.278,0,1,1,12.557,0v22.354A6.278,6.278,0,0,1,960.52,853.911Z" transform="translate(-954.241 -819)" fill="#f9c33d" stroke="#fff" stroke-width="1.5"/>
            </g>
          </g>
          <g id="Group_232" data-name="Group 232" transform="translate(32.386 32.386)">
            <g id="Group_230" data-name="Group 230">
              <path id="Path_500" data-name="Path 500" d="M768.087,933.62a6.259,6.259,0,0,1-4.44-1.839l-15.806-15.806a6.279,6.279,0,0,1,8.879-8.879L772.526,922.9a6.279,6.279,0,0,1-4.44,10.718Z" transform="translate(-746.002 -905.256)" fill="#f9c33d" stroke="#fff" stroke-width="1.5"/>
            </g>
            <g id="Group_231" data-name="Group 231" transform="translate(140.566 140.566)">
              <path id="Path_501" data-name="Path 501" d="M1142.464,1308a6.259,6.259,0,0,1-4.439-1.839l-15.807-15.807a6.279,6.279,0,0,1,8.88-8.879l15.806,15.806a6.278,6.278,0,0,1-4.44,10.718Z" transform="translate(-1120.379 -1279.633)" fill="#f9c33d" stroke="#fff" stroke-width="1.5"/>
            </g>
          </g>
          <g id="Group_235" data-name="Group 235" transform="translate(0 110.572)">
            <g id="Group_233" data-name="Group 233">
              <path id="Path_502" data-name="Path 502" d="M688.38,1126.05H666.025a6.279,6.279,0,0,1,0-12.557H688.38a6.279,6.279,0,0,1,0,12.557Z" transform="translate(-659.747 -1113.493)" fill="#f9c33d" stroke="#fff" stroke-width="1.5"/>
            </g>
            <g id="Group_234" data-name="Group 234" transform="translate(198.79)">
              <path id="Path_503" data-name="Path 503" d="M1217.83,1126.05h-22.355a6.279,6.279,0,0,1,0-12.557h22.355a6.279,6.279,0,1,1,0,12.557Z" transform="translate(-1189.197 -1113.493)" fill="#f9c33d" stroke="#fff" stroke-width="1.5"/>
            </g>
          </g>
          <g id="Group_238" data-name="Group 238" transform="translate(32.386 32.386)">
            <g id="Group_236" data-name="Group 236" transform="translate(0 140.566)">
              <path id="Path_504" data-name="Path 504" d="M752.281,1308a6.278,6.278,0,0,1-4.44-10.718l15.806-15.806a6.278,6.278,0,0,1,8.879,8.879l-15.806,15.807A6.26,6.26,0,0,1,752.281,1308Z" transform="translate(-746.002 -1279.633)" fill="#f9c33d" stroke="#fff" stroke-width="1.5"/>
            </g>
            <g id="Group_237" data-name="Group 237" transform="translate(140.566)">
              <path id="Path_505" data-name="Path 505" d="M1126.658,933.62a6.279,6.279,0,0,1-4.44-10.718l15.807-15.807a6.278,6.278,0,0,1,8.879,8.879L1131.1,931.78A6.26,6.26,0,0,1,1126.658,933.62Z" transform="translate(-1120.379 -905.256)" fill="#f9c33d" stroke="#fff" stroke-width="1.5"/>
            </g>
          </g>
        </g>
      </g>
    </g>
    <g id="Group_888-2" data-name="Group 888" transform="translate(10757.999 -1700)">
      <g id="Group_220-2" data-name="Group 220" transform="translate(0 0)">
        <g id="Group_219-2" data-name="Group 219">
          <rect id="Rectangle_1639-2" data-name="Rectangle 1639" width="81.758" height="3.755" transform="matrix(0.566, -0.825, 0.825, 0.566, 39.766, 190.246)" fill="rgba(249,195,61,0.4)"/>
          <path id="Path_472-2" data-name="Path 472" d="M582.176,1334.75l-64.657-31.943,19.093-27.838,3.1,2.124-16.643,24.266,60.774,30.026Z" transform="translate(-517.519 -1054.582)" fill="rgba(249,195,61,0.4)"/>
          <path id="Path_473-2" data-name="Path 473" d="M913.258,1539.022l-34.691-17.139,1.663-3.367,33.029,16.317,31.57-15.6,1.663,3.366Z" transform="translate(-743.005 -1206.687)" fill="rgba(249,195,61,0.4)"/>
          <path id="Path_474-2" data-name="Path 474" d="M1326.238,1275.548l-1.663-3.367,27.907-13.787-34.36-50.095,3.1-2.124,36.81,53.667Z" transform="translate(-1017.523 -1011.619)" fill="rgba(249,195,61,0.4)"/>
          <path id="Path_475-2" data-name="Path 475" d="M872.684,745.618l-3.1-2.124L907.65,688l37.311,54.4-3.1,2.124L907.65,694.638Z" transform="translate(-737.398 -688)" fill="rgba(249,195,61,0.4)"/>
          <rect id="Rectangle_1640-2" data-name="Rectangle 1640" width="3.755" height="88.993" transform="matrix(0.443, -0.897, 0.897, 0.443, 61.167, 264.623)" fill="rgba(249,195,61,0.4)"/>
          <path id="Path_476-2" data-name="Path 476" d="M1280.286,1269.6l-1.663-3.366,29.3-14.474-31.846-46.431,3.1-2.124,34.3,50Z" transform="translate(-991.262 -1009.766)" fill="rgba(249,195,61,0.4)"/>
          <rect id="Rectangle_1641-2" data-name="Rectangle 1641" width="3.755" height="140.062" transform="matrix(0.825, -0.566, 0.566, 0.825, 205.588, 80.063)" fill="rgba(249,195,61,0.4)"/>
          <g id="Group_218-2" data-name="Group 218" transform="translate(37.436 42.816)">
            <g id="Group_216-2" data-name="Group 216" transform="translate(0 170.62)">
              <path id="Path_477-2" data-name="Path 477" d="M709.957,1368.367a.187.187,0,0,1-.083-.019l-3.029-1.5a.188.188,0,1,1,.166-.336l3.03,1.5a.188.188,0,0,1-.083.356Z" transform="translate(-673.129 -1325.179)" fill="rgba(249,195,61,0.4)"/>
              <path id="Path_478-2" data-name="Path 478" d="M660.255,1343.812a.179.179,0,0,1-.083-.02l-6.1-3.012a.188.188,0,1,1,.166-.336l6.1,3.012a.188.188,0,0,1-.083.356Zm-12.2-6.025a.187.187,0,0,1-.083-.02l-6.1-3.012a.188.188,0,0,1,.166-.337l6.1,3.013a.188.188,0,0,1-.084.356Z" transform="translate(-632.556 -1305.134)" fill="rgba(249,195,61,0.4)"/>
              <path id="Path_479-2" data-name="Path 479" d="M620.531,1319.625a.191.191,0,0,1-.083-.019l-3.224-1.593,2.034-2.965a.188.188,0,0,1,.31.213l-1.789,2.608,2.836,1.4a.188.188,0,0,1-.083.356Z" transform="translate(-617.224 -1292.998)" fill="rgba(249,195,61,0.4)"/>
              <path id="Path_480-2" data-name="Path 480" d="M634.421,1287.676a.185.185,0,0,1-.106-.033.187.187,0,0,1-.048-.261l4.385-6.394a.188.188,0,1,1,.31.212l-4.385,6.394A.187.187,0,0,1,634.421,1287.676Z" transform="translate(-627.847 -1271.726)" fill="rgba(249,195,61,0.4)"/>
              <path id="Path_481-2" data-name="Path 481" d="M657.781,1259.617a.187.187,0,0,1-.154-.294l1.911-2.787a.188.188,0,1,1,.31.212l-1.911,2.787A.187.187,0,0,1,657.781,1259.617Z" transform="translate(-642.436 -1256.455)" fill="rgba(249,195,61,0.4)"/>
            </g>
            <g id="Group_217-2" data-name="Group 217" transform="translate(36.64 213.432)">
              <path id="Path_482-2" data-name="Path 482" d="M885.966,1455.323a.186.186,0,0,1-.083-.02l-3.03-1.5a.188.188,0,0,1,.166-.337l3.03,1.5a.188.188,0,0,1-.083.356Z" transform="translate(-819.693 -1422.298)" fill="rgba(249,195,61,0.4)"/>
              <path id="Path_483-2" data-name="Path 483" d="M787.515,1406.685a.19.19,0,0,1-.083-.02l-6.669-3.3a.188.188,0,1,1,.166-.336l6.669,3.3a.188.188,0,0,1-.083.356Zm-13.339-6.591a.186.186,0,0,1-.083-.019l-6.669-3.295a.188.188,0,1,1,.166-.337l6.669,3.3a.187.187,0,0,1-.083.355Zm-13.339-6.589a.194.194,0,0,1-.083-.019l-6.669-3.3a.188.188,0,0,1,.166-.337l6.669,3.3a.188.188,0,0,1-.083.356Zm-13.339-6.59a.2.2,0,0,1-.083-.02l-6.669-3.3a.188.188,0,0,1,.166-.337l6.67,3.295a.188.188,0,0,1-.083.357Z" transform="translate(-730.941 -1378.452)" fill="rgba(249,195,61,0.4)"/>
              <path id="Path_484-2" data-name="Path 484" d="M718.026,1372.353a.194.194,0,0,1-.083-.02l-3.03-1.5a.188.188,0,0,1,.166-.337l3.03,1.5a.188.188,0,0,1-.083.356Z" transform="translate(-714.808 -1370.481)" fill="rgba(249,195,61,0.4)"/>
            </g>
            <path id="Path_485-2" data-name="Path 485" d="M920.253,1465.5l-30.485-15.061,1.164-2.357,29.321,14.486,37.5-18.524,1.164,2.356Z" transform="translate(-787.437 -1202.991)" fill="rgba(249,195,61,0.4)"/>
            <rect id="Rectangle_1642-2" data-name="Rectangle 1642" width="53.676" height="2.628" transform="translate(189.733 231.457) rotate(-26.29)" fill="rgba(249,195,61,0.4)"/>
            <path id="Path_486-2" data-name="Path 486" d="M1242.127,1248.86a.187.187,0,0,1-.084-.356l6.059-2.994a.188.188,0,1,1,.167.337l-6.06,2.994A.182.182,0,0,1,1242.127,1248.86Zm12.118-5.987a.187.187,0,0,1-.083-.356l6.059-2.993a.188.188,0,1,1,.166.336l-6.059,2.994A.186.186,0,0,1,1254.245,1242.873Zm10.15-6.5a.189.189,0,0,1-.155-.082l-3.822-5.573a.188.188,0,0,1,.31-.212l3.823,5.573a.189.189,0,0,1-.049.261A.183.183,0,0,1,1264.4,1236.372Zm-7.645-11.147a.185.185,0,0,1-.155-.082l-3.822-5.573a.188.188,0,1,1,.309-.213l3.823,5.573a.188.188,0,0,1-.155.294Zm-7.646-11.146a.187.187,0,0,1-.155-.082l-3.823-5.574a.188.188,0,0,1,.31-.212l3.822,5.573a.188.188,0,0,1-.048.261A.191.191,0,0,1,1249.1,1214.079Zm-7.645-11.147a.188.188,0,0,1-.155-.082l-3.823-5.573a.188.188,0,1,1,.31-.212l3.822,5.573a.188.188,0,0,1-.048.261A.185.185,0,0,1,1241.459,1202.932Zm-7.645-11.146a.189.189,0,0,1-.156-.082l-3.823-5.574a.188.188,0,1,1,.31-.212l3.822,5.573a.188.188,0,0,1-.048.261A.192.192,0,0,1,1233.814,1191.786Z" transform="translate(-999.801 -1041.732)" fill="rgba(249,195,61,0.4)"/>
            <path id="Path_487-2" data-name="Path 487" d="M1121.765,1028.419a.186.186,0,0,1-.155-.081l-3.823-5.573a.188.188,0,0,1,.31-.212l3.823,5.574a.187.187,0,0,1-.155.293Zm-7.645-11.146a.186.186,0,0,1-.155-.082l-3.823-5.573a.188.188,0,1,1,.31-.212l3.822,5.573a.188.188,0,0,1-.155.294Zm-7.645-11.147a.187.187,0,0,1-.155-.082l-3.823-5.573a.188.188,0,0,1,.31-.213l3.822,5.573a.188.188,0,0,1-.154.294Zm-7.646-11.147a.187.187,0,0,1-.155-.082l-3.823-5.573a.188.188,0,1,1,.309-.212l3.823,5.573a.188.188,0,0,1-.155.294Zm-7.645-11.147a.186.186,0,0,1-.154-.082l-3.823-5.573a.188.188,0,0,1,.31-.212l3.823,5.573a.188.188,0,0,1-.155.294Zm-7.646-11.147a.188.188,0,0,1-.155-.082l-3.823-5.573a.188.188,0,0,1,.31-.212l3.822,5.573a.187.187,0,0,1-.048.261A.19.19,0,0,1,1083.537,972.685Zm-7.645-11.147a.188.188,0,0,1-.155-.082l-3.822-5.573a.188.188,0,0,1,.309-.213l3.822,5.573a.188.188,0,0,1-.154.294Zm-7.646-11.147a.19.19,0,0,1-.156-.082l-3.822-5.573a.188.188,0,0,1,.31-.213l3.822,5.573a.188.188,0,0,1-.048.261A.191.191,0,0,1,1068.247,950.392Zm-7.646-11.147a.187.187,0,0,1-.155-.081l-3.823-5.573a.188.188,0,1,1,.31-.213l3.823,5.573a.189.189,0,0,1-.048.261A.191.191,0,0,1,1060.6,939.244Z" transform="translate(-891.624 -884.011)" fill="rgba(249,195,61,0.4)"/>
            <path id="Path_488-2" data-name="Path 488" d="M876.955,856.168l-2.167-1.487L910.9,802.034l33.422,48.729-2.167,1.487L910.9,806.681Z" transform="translate(-778.081 -802.034)" fill="rgba(249,195,61,0.4)"/>
            <rect id="Rectangle_1643-2" data-name="Rectangle 1643" width="62.382" height="2.628" transform="translate(39.504 136.05) rotate(-55.557)" fill="rgba(249,195,61,0.4)"/>
            <rect id="Rectangle_1644-2" data-name="Rectangle 1644" width="41.247" height="2.628" transform="translate(16.174 170.065) rotate(-55.557)" fill="rgba(249,195,61,0.4)"/>
          </g>
          <path id="Path_489-2" data-name="Path 489" d="M789.707,1096.069l-.415-.206-108.553-53.629L789.707,883.36l108.969,158.874Zm-106.2-54.558,106.2,52.464,106.2-52.464-106.2-154.832Z" transform="translate(-619.455 -810.009)" fill="rgba(249,195,61,0.4)" opacity="0.1"/>
          <path id="Path_490-2" data-name="Path 490" d="M822.918,1120.742l-89-43.971.368-.536,88.635-129.228,89,129.764-.582.288Zm-87.339-44.406,87.339,43.149,87.339-43.149L822.918,949Z" transform="translate(-652.665 -849.759)" fill="rgba(249,195,61,0.4)" opacity="0.08"/>
          <path id="Path_491-2" data-name="Path 491" d="M858.9,1147.472l-67.373-33.285,67.373-98.229,67.374,98.229Zm-65.709-33.72,65.709,32.463,65.71-32.463-65.71-95.8Z" transform="translate(-688.644 -892.821)" fill="rgba(249,195,61,0.4)" opacity="0.06"/>
          <path id="Path_492-2" data-name="Path 492" d="M901.331,1179l-41.861-20.681,41.861-61.034,41.862,61.034Zm-40.2-21.115,40.2,19.859,40.2-19.859-40.2-58.608Z" transform="translate(-731.079 -943.612)" fill="rgba(249,195,61,0.4)" opacity="0.04"/>
          <path id="Path_493-2" data-name="Path 493" d="M938.232,1206.413l-19.678-9.721L938.232,1168l19.677,28.689Zm-19.123-9.866,19.123,9.447,19.123-9.447-19.123-27.88Z" transform="translate(-767.979 -987.778)" fill="rgba(249,195,61,0.4)" opacity="0.03"/>
        </g>
      </g>
    </g>
    <g id="Group_889-2" data-name="Group 889" transform="translate(10811.401 -1650.814)">
      <g id="Group_225-2" data-name="Group 225" transform="translate(90.052 198.283)">
        <g id="Group_222-2" data-name="Group 222">
          <path id="Path_494-2" data-name="Path 494" d="M947.258,1359.657H905.866a6.278,6.278,0,1,1,0-12.557h41.392a6.278,6.278,0,1,1,0,12.557Z" transform="translate(-899.588 -1347.1)" fill="#f9c33d" stroke="#fff" stroke-width="1.5"/>
        </g>
        <g id="Group_223-2" data-name="Group 223" transform="translate(0 18.875)">
          <path id="Path_495-2" data-name="Path 495" d="M947.258,1409.928H905.866a6.278,6.278,0,1,1,0-12.557h41.392a6.278,6.278,0,1,1,0,12.557Z" transform="translate(-899.588 -1397.371)" fill="#f9c33d" stroke="#fff" stroke-width="1.5"/>
        </g>
        <g id="Group_224-2" data-name="Group 224" transform="translate(9.275 36.986)">
          <path id="Path_496-2" data-name="Path 496" d="M953.411,1458.165H930.569a6.279,6.279,0,0,1,0-12.558h22.841a6.279,6.279,0,0,1,0,12.558Z" transform="translate(-924.291 -1445.608)" fill="#f9c33d" stroke="#fff" stroke-width="1.5"/>
        </g>
      </g>
      <g id="Group_240-2" data-name="Group 240" transform="translate(0 0)">
        <g id="Group_226-2" data-name="Group 226" transform="translate(123.209 79.534)">
          <path id="Path_497-2" data-name="Path 497" d="M1016.208,1073.475a6.279,6.279,0,0,1-6.279-6.278,25.175,25.175,0,0,0-17.645-24.1,6.278,6.278,0,0,1,3.785-11.973,37.685,37.685,0,0,1,26.418,36.077A6.279,6.279,0,0,1,1016.208,1073.475Z" transform="translate(-987.897 -1030.827)" fill="#f9c33d" stroke="#fff" stroke-width="1.5"/>
        </g>
        <g id="Group_227-2" data-name="Group 227" transform="translate(53.652 55.365)">
          <path id="Path_498-2" data-name="Path 498" d="M840.777,1102.738a6.279,6.279,0,0,1-6.236-5.62c-.558-5.28-4.882-10.383-10.358-16.845-9.092-10.729-21.543-25.421-21.543-50.46a63.356,63.356,0,1,1,126.712,0c0,25.038-12.452,39.732-21.543,50.46-5.476,6.462-9.8,11.565-10.358,16.844a6.279,6.279,0,1,1-12.488-1.318c.965-9.128,6.94-16.179,13.266-23.644,8.7-10.27,18.566-21.908,18.566-42.342a50.8,50.8,0,0,0-101.6,0c0,20.433,9.863,32.073,18.566,42.342,6.326,7.465,12.3,14.517,13.266,23.644a6.28,6.28,0,0,1-5.585,6.9A6.488,6.488,0,0,1,840.777,1102.738Z" transform="translate(-802.641 -966.457)" fill="#f9c33d" stroke="#fff" stroke-width="1.5"/>
        </g>
        <g id="Group_239-2" data-name="Group 239">
          <g id="Group_229-2" data-name="Group 229" transform="translate(110.572)">
            <g id="Group_228-2" data-name="Group 228">
              <path id="Path_499-2" data-name="Path 499" d="M960.52,853.911a6.278,6.278,0,0,1-6.279-6.279V825.278a6.278,6.278,0,1,1,12.557,0v22.354A6.278,6.278,0,0,1,960.52,853.911Z" transform="translate(-954.241 -819)" fill="#f9c33d" stroke="#fff" stroke-width="1.5"/>
            </g>
          </g>
          <g id="Group_232-2" data-name="Group 232" transform="translate(32.386 32.386)">
            <g id="Group_230-2" data-name="Group 230">
              <path id="Path_500-2" data-name="Path 500" d="M768.087,933.62a6.259,6.259,0,0,1-4.44-1.839l-15.806-15.806a6.279,6.279,0,0,1,8.879-8.879L772.526,922.9a6.279,6.279,0,0,1-4.44,10.718Z" transform="translate(-746.002 -905.256)" fill="#f9c33d" stroke="#fff" stroke-width="1.5"/>
            </g>
            <g id="Group_231-2" data-name="Group 231" transform="translate(140.566 140.566)">
              <path id="Path_501-2" data-name="Path 501" d="M1142.464,1308a6.259,6.259,0,0,1-4.439-1.839l-15.807-15.807a6.279,6.279,0,0,1,8.88-8.879l15.806,15.806a6.278,6.278,0,0,1-4.44,10.718Z" transform="translate(-1120.379 -1279.633)" fill="#f9c33d" stroke="#fff" stroke-width="1.5"/>
            </g>
          </g>
          <g id="Group_235-2" data-name="Group 235" transform="translate(0 110.572)">
            <g id="Group_233-2" data-name="Group 233">
              <path id="Path_502-2" data-name="Path 502" d="M688.38,1126.05H666.025a6.279,6.279,0,0,1,0-12.557H688.38a6.279,6.279,0,0,1,0,12.557Z" transform="translate(-659.747 -1113.493)" fill="#f9c33d" stroke="#fff" stroke-width="1.5"/>
            </g>
            <g id="Group_234-2" data-name="Group 234" transform="translate(198.79)">
              <path id="Path_503-2" data-name="Path 503" d="M1217.83,1126.05h-22.355a6.279,6.279,0,0,1,0-12.557h22.355a6.279,6.279,0,1,1,0,12.557Z" transform="translate(-1189.197 -1113.493)" fill="#f9c33d" stroke="#fff" stroke-width="1.5"/>
            </g>
          </g>
          <g id="Group_238-2" data-name="Group 238" transform="translate(32.386 32.386)">
            <g id="Group_236-2" data-name="Group 236" transform="translate(0 140.566)">
              <path id="Path_504-2" data-name="Path 504" d="M752.281,1308a6.278,6.278,0,0,1-4.44-10.718l15.806-15.806a6.278,6.278,0,0,1,8.879,8.879l-15.806,15.807A6.26,6.26,0,0,1,752.281,1308Z" transform="translate(-746.002 -1279.633)" fill="#f9c33d" stroke="#fff" stroke-width="1.5"/>
            </g>
            <g id="Group_237-2" data-name="Group 237" transform="translate(140.566)">
              <path id="Path_505-2" data-name="Path 505" d="M1126.658,933.62a6.279,6.279,0,0,1-4.44-10.718l15.807-15.807a6.278,6.278,0,0,1,8.879,8.879L1131.1,931.78A6.26,6.26,0,0,1,1126.658,933.62Z" transform="translate(-1120.379 -905.256)" fill="#f9c33d" stroke="#fff" stroke-width="1.5"/>
            </g>
          </g>
        </g>
      </g>
    </g>
  </g>
</svg>
