<svg xmlns="http://www.w3.org/2000/svg" width="143.344" height="139.903" viewBox="0 0 143.344 139.903">
  <g id="Group_843" data-name="Group 843" transform="translate(-563.5 -557)">
    <g id="Group_204" data-name="Group 204" transform="translate(563.5 557)">
      <g id="Group_203" data-name="Group 203" transform="translate(0 0)" opacity="0.35">
        <g id="Group_202" data-name="Group 202">
          <rect id="Rectangle_1633" data-name="Rectangle 1633" width="34.418" height="1.581" transform="matrix(0.566, -0.825, 0.825, 0.566, 16.74, 80.088)" fill="rgba(47,85,150,0.2)"/>
          <path id="Path_441" data-name="Path 441" d="M590.719,1169.135,563.5,1155.688l8.038-11.719,1.3.894-7.006,10.215,25.584,12.64Z" transform="translate(-563.5 -1051.193)" fill="rgba(47,85,150,0.2)"/>
          <path id="Path_442" data-name="Path 442" d="M939.152,1396.149l-14.6-7.215.7-1.417,13.9,6.869,13.29-6.565.7,1.417Z" transform="translate(-867.48 -1256.246)" fill="rgba(47,85,150,0.2)"/>
          <path id="Path_443" data-name="Path 443" d="M1367.52,1104.379l-.7-1.417,11.748-5.8L1364.1,1076.07l1.3-.894,15.5,22.592Z" transform="translate(-1237.56 -993.273)" fill="rgba(47,85,150,0.2)"/>
          <path id="Path_444" data-name="Path 444" d="M916.872,581.255l-1.3-.894L931.592,557,947.3,579.9l-1.3.894-14.4-21Z" transform="translate(-859.92 -557)" fill="rgba(47,85,150,0.2)"/>
          <rect id="Rectangle_1634" data-name="Rectangle 1634" width="1.581" height="37.464" transform="matrix(0.443, -0.897, 0.897, 0.443, 25.75, 111.398)" fill="rgba(47,85,150,0.2)"/>
          <path id="Path_445" data-name="Path 445" d="M1323.827,1100.16l-.7-1.417,12.333-6.093-13.406-19.546,1.3-.894,14.438,21.05Z" transform="translate(-1202.156 -990.776)" fill="rgba(47,85,150,0.2)"/>
          <rect id="Rectangle_1635" data-name="Rectangle 1635" width="1.581" height="58.962" transform="matrix(0.825, -0.566, 0.566, 0.825, 86.547, 33.704)" fill="rgba(47,85,150,0.2)"/>
          <g id="Group_201" data-name="Group 201" transform="translate(15.759 18.024)">
            <g id="Group_199" data-name="Group 199" transform="translate(0 71.826)">
              <path id="Path_446" data-name="Path 446" d="M754.075,1236.283a.085.085,0,0,1-.035-.008l-1.275-.63a.079.079,0,1,1,.07-.141l1.275.63a.079.079,0,0,1-.035.15Z" transform="translate(-738.572 -1218.102)" fill="rgba(47,85,150,0.2)"/>
              <path id="Path_447" data-name="Path 447" d="M695.535,1207.362a.081.081,0,0,1-.035-.008l-2.567-1.268a.079.079,0,1,1,.07-.141l2.567,1.268a.079.079,0,0,1-.035.15Zm-5.134-2.537a.077.077,0,0,1-.035-.008l-2.567-1.268a.079.079,0,1,1,.07-.142l2.567,1.268a.079.079,0,0,1-.035.15Z" transform="translate(-683.874 -1191.079)" fill="rgba(47,85,150,0.2)"/>
              <path id="Path_448" data-name="Path 448" d="M664.6,1185.928a.079.079,0,0,1-.035-.008l-1.357-.671.856-1.248a.079.079,0,1,1,.13.09l-.753,1.1,1.194.59a.079.079,0,0,1-.035.15Z" transform="translate(-663.205 -1174.718)" fill="rgba(47,85,150,0.2)"/>
              <path id="Path_449" data-name="Path 449" d="M680.293,1152.756a.08.08,0,0,1-.045-.014.079.079,0,0,1-.02-.11l1.846-2.692a.079.079,0,0,1,.13.089l-1.846,2.692A.078.078,0,0,1,680.293,1152.756Z" transform="translate(-677.526 -1146.042)" fill="rgba(47,85,150,0.2)"/>
              <path id="Path_450" data-name="Path 450" d="M703.654,1126.786a.079.079,0,0,1-.065-.123l.8-1.173a.079.079,0,1,1,.13.089l-.8,1.173A.077.077,0,0,1,703.654,1126.786Z" transform="translate(-697.194 -1125.455)" fill="rgba(47,85,150,0.2)"/>
            </g>
            <g id="Group_200" data-name="Group 200" transform="translate(15.424 89.848)">
              <path id="Path_451" data-name="Path 451" d="M930.085,1323.238a.08.08,0,0,1-.035-.008l-1.275-.63a.079.079,0,0,1-.036-.106.08.08,0,0,1,.106-.036l1.275.63a.079.079,0,0,1-.035.15Z" transform="translate(-902.186 -1309.336)" fill="rgba(47,85,150,0.2)"/>
              <path id="Path_452" data-name="Path 452" d="M806.355,1262.112a.077.077,0,0,1-.035-.009l-2.808-1.387a.079.079,0,1,1,.07-.142l2.808,1.387a.079.079,0,0,1-.035.15Zm-5.616-2.775a.079.079,0,0,1-.035-.008l-2.808-1.387a.079.079,0,1,1,.07-.142l2.807,1.387a.079.079,0,0,1-.035.15Zm-5.615-2.774a.084.084,0,0,1-.035-.008l-2.808-1.387a.079.079,0,0,1,.07-.142l2.808,1.387a.079.079,0,0,1-.035.15Zm-5.615-2.774a.078.078,0,0,1-.035-.008l-2.808-1.387a.079.079,0,0,1,.07-.142l2.808,1.387a.079.079,0,0,1-.035.15Z" transform="translate(-782.539 -1250.226)" fill="rgba(47,85,150,0.2)"/>
              <path id="Path_453" data-name="Path 453" d="M762.144,1240.269a.077.077,0,0,1-.035-.008l-1.275-.63a.079.079,0,0,1,.07-.142l1.275.63a.079.079,0,0,1-.035.149Z" transform="translate(-760.789 -1239.481)" fill="rgba(47,85,150,0.2)"/>
            </g>
            <path id="Path_454" data-name="Path 454" d="M948.583,1322.076l-12.834-6.34.49-.992,12.343,6.1,15.784-7.8.49.992Z" transform="translate(-892.671 -1211.568)" fill="rgba(47,85,150,0.2)"/>
            <rect id="Rectangle_1636" data-name="Rectangle 1636" width="22.596" height="1.107" transform="translate(79.872 97.436) rotate(-26.29)" fill="rgba(47,85,150,0.2)"/>
            <path id="Path_455" data-name="Path 455" d="M1280.972,1081.367a.079.079,0,0,1-.035-.15l2.551-1.26a.079.079,0,1,1,.07.142l-2.551,1.26A.077.077,0,0,1,1280.972,1081.367Zm5.1-2.52a.079.079,0,0,1-.035-.15l2.551-1.26a.079.079,0,1,1,.07.142l-2.551,1.26A.082.082,0,0,1,1286.074,1078.847Zm4.273-2.737a.078.078,0,0,1-.065-.034l-1.61-2.346a.079.079,0,0,1,.13-.089l1.609,2.346a.079.079,0,0,1-.02.11A.078.078,0,0,1,1290.347,1076.11Zm-3.219-4.693a.079.079,0,0,1-.065-.035l-1.609-2.346a.079.079,0,0,1,.13-.09l1.609,2.346a.079.079,0,0,1-.021.11A.078.078,0,0,1,1287.128,1071.418Zm-3.218-4.693a.079.079,0,0,1-.065-.034l-1.61-2.346a.079.079,0,0,1,.131-.089l1.609,2.346a.079.079,0,0,1-.02.11A.08.08,0,0,1,1283.91,1066.725Zm-3.219-4.692a.079.079,0,0,1-.065-.034l-1.609-2.346a.079.079,0,0,1,.131-.089l1.609,2.346a.079.079,0,0,1-.021.109A.077.077,0,0,1,1280.691,1062.033Zm-3.219-4.693a.08.08,0,0,1-.065-.034l-1.609-2.346a.079.079,0,1,1,.13-.089l1.609,2.346a.079.079,0,0,1-.065.124Z" transform="translate(-1178.96 -994.173)" fill="rgba(47,85,150,0.2)"/>
            <path id="Path_456" data-name="Path 456" d="M1130.009,842.34a.079.079,0,0,1-.065-.034l-1.609-2.346a.079.079,0,1,1,.13-.089l1.609,2.346a.079.079,0,0,1-.065.124Zm-3.219-4.693a.078.078,0,0,1-.065-.034l-1.61-2.346a.079.079,0,0,1,.13-.089l1.61,2.346a.079.079,0,0,1-.021.11A.081.081,0,0,1,1126.791,837.647Zm-3.219-4.693a.079.079,0,0,1-.065-.034l-1.609-2.346a.079.079,0,0,1,.13-.089l1.609,2.346a.079.079,0,0,1-.065.124Zm-3.218-4.693a.079.079,0,0,1-.065-.034l-1.609-2.346a.079.079,0,1,1,.13-.09l1.609,2.346a.079.079,0,0,1-.021.11A.077.077,0,0,1,1120.354,828.262Zm-3.219-4.692a.079.079,0,0,1-.065-.034l-1.609-2.346a.079.079,0,0,1,.13-.09l1.609,2.346a.079.079,0,0,1-.065.124Zm-3.218-4.692a.079.079,0,0,1-.065-.034l-1.609-2.346a.079.079,0,0,1,.131-.09l1.609,2.346a.079.079,0,0,1-.065.124Zm-3.218-4.693a.079.079,0,0,1-.065-.034l-1.609-2.346a.079.079,0,0,1,.13-.09l1.61,2.346a.079.079,0,0,1-.065.124Zm-3.219-4.692a.078.078,0,0,1-.065-.035l-1.609-2.346a.079.079,0,0,1,.13-.089l1.609,2.346a.079.079,0,0,1-.065.124Zm-3.218-4.692a.079.079,0,0,1-.065-.035l-1.609-2.346a.079.079,0,0,1,.13-.089l1.609,2.346a.079.079,0,0,1-.065.124Z" transform="translate(-1033.126 -781.548)" fill="rgba(47,85,150,0.2)"/>
            <path id="Path_457" data-name="Path 457" d="M921.681,693.823l-.912-.626,15.2-22.163,14.07,20.513-.912.626L935.97,672.99Z" transform="translate(-880.058 -671.034)" fill="rgba(47,85,150,0.2)"/>
            <rect id="Rectangle_1637" data-name="Rectangle 1637" width="26.261" height="1.107" transform="translate(16.63 57.273) rotate(-55.557)" fill="rgba(47,85,150,0.2)"/>
            <rect id="Rectangle_1638" data-name="Rectangle 1638" width="17.364" height="1.106" transform="translate(6.809 71.592) rotate(-55.557)" fill="rgba(47,85,150,0.2)"/>
          </g>
          <path id="Path_458" data-name="Path 458" d="M772.593,841.9l-.175-.086-45.7-22.576,45.873-66.881,45.873,66.881Zm-44.705-22.967,44.705,22.086L817.3,818.936l-44.706-65.179Z" transform="translate(-700.921 -721.482)" fill="rgba(47,85,150,0.2)" opacity="0.1"/>
          <path id="Path_459" data-name="Path 459" d="M817.364,889.144,779.9,870.634l.155-.226,37.313-54.4,37.468,54.627-.245.121ZM780.6,870.451l36.768,18.164,36.768-18.164-36.768-53.606Z" transform="translate(-745.692 -775.068)" fill="rgba(47,85,150,0.2)" opacity="0.08"/>
          <path id="Path_460" data-name="Path 460" d="M865.866,940.321,837.5,926.309l28.362-41.351,28.362,41.351ZM838.2,926.126l27.662,13.666,27.662-13.666L865.866,885.8Z" transform="translate(-794.195 -833.121)" fill="rgba(47,85,150,0.2)" opacity="0.06"/>
          <path id="Path_461" data-name="Path 461" d="M923.073,1000.683l-17.622-8.706,17.622-25.693L940.7,991.977Zm-16.922-8.889,16.922,8.36L940,991.794l-16.922-24.672Z" transform="translate(-851.402 -901.593)" fill="rgba(47,85,150,0.2)" opacity="0.04"/>
          <path id="Path_462" data-name="Path 462" d="M972.818,1053.173l-8.284-4.092L972.818,1037l8.284,12.077Zm-8.05-4.153,8.05,3.977,8.05-3.977-8.05-11.737Z" transform="translate(-901.147 -961.134)" fill="rgba(47,85,150,0.2)" opacity="0.03"/>
        </g>
      </g>
    </g>
    <g id="Group_214" data-name="Group 214" transform="translate(599.43 583.703)">
      <g id="Group_205" data-name="Group 205" transform="translate(68.876 42.542)">
        <path id="Path_463" data-name="Path 463" d="M1250.882,1015.354H1236.7a2.027,2.027,0,0,1-1.432-.593l-8.1-8.1a2.025,2.025,0,0,1,0-2.865l8.1-8.1a2.025,2.025,0,0,1,1.432-.594h14.18a2.026,2.026,0,0,1,1.433,3.458l-6.671,6.671,6.671,6.671a2.026,2.026,0,0,1-1.433,3.458Zm-13.341-4.051h8.451l-4.645-4.645a2.025,2.025,0,0,1,0-2.865l4.645-4.645h-8.451l-6.077,6.077Z" transform="translate(-1226.573 -995.096)" fill="#2a59a7"/>
      </g>
      <g id="Group_206" data-name="Group 206" transform="translate(32.412 22.285)">
        <path id="Path_464" data-name="Path 464" d="M997.9,899.345a2.026,2.026,0,0,1-1.432-3.458l28.361-28.361a2.026,2.026,0,0,1,2.865,2.865l-28.361,28.36A2.019,2.019,0,0,1,997.9,899.345Z" transform="translate(-995.877 -866.933)" fill="#2a59a7"/>
      </g>
      <g id="Group_207" data-name="Group 207" transform="translate(32.412 50.645)">
        <path id="Path_465" data-name="Path 465" d="M1034.367,1050.413H997.9a2.026,2.026,0,1,1,0-4.051h36.464a2.026,2.026,0,0,1,0,4.051Z" transform="translate(-995.877 -1046.362)" fill="#2a59a7"/>
      </g>
      <g id="Group_208" data-name="Group 208" transform="translate(20.258 38.491)">
        <path id="Path_466" data-name="Path 466" d="M933.159,997.823a14.18,14.18,0,1,1,4.717-27.556l-1.349,3.82a10.13,10.13,0,1,0,5.406,14.618l3.508,2.03A14.235,14.235,0,0,1,933.159,997.823Z" transform="translate(-918.979 -969.463)" fill="#2a59a7"/>
      </g>
      <g id="Group_209" data-name="Group 209" transform="translate(60.773 0)">
        <path id="Path_467" data-name="Path 467" d="M1187.462,752.279h-10.129a2.026,2.026,0,0,1-2.026-2.026V740.124a2.026,2.026,0,0,1,.594-1.432l12.155-12.154a2.025,2.025,0,0,1,3.458,1.432v8.1h8.1a2.026,2.026,0,0,1,1.432,3.458l-12.155,12.155A2.027,2.027,0,0,1,1187.462,752.279Zm-8.1-4.051h7.264l8.1-8.1h-5.239a2.026,2.026,0,0,1-2.025-2.026V732.86l-8.1,8.1Z" transform="translate(-1175.307 -725.942)" fill="#2a59a7"/>
      </g>
      <g id="Group_210" data-name="Group 210" transform="translate(10.129 28.362)">
        <path id="Path_468" data-name="Path 468" d="M879.206,954a24.309,24.309,0,1,1,13.274-44.678l-2.216,3.393a20.258,20.258,0,1,0,8.865,20.661l3.984.732A24.291,24.291,0,0,1,879.206,954Z" transform="translate(-854.897 -905.381)" fill="#2a59a7"/>
      </g>
      <g id="Group_211" data-name="Group 211" transform="translate(51.42 39.409)">
        <path id="Path_469" data-name="Path 469" d="M1119.073,984.847a20.054,20.054,0,0,0-2.942-7.364l3.395-2.212a24.093,24.093,0,0,1,3.531,8.844Z" transform="translate(-1116.131 -975.271)" fill="#2a59a7"/>
      </g>
      <g id="Group_212" data-name="Group 212" transform="translate(0 18.233)">
        <path id="Path_470" data-name="Path 470" d="M825.253,910.175a34.438,34.438,0,1,1,21.521-61.324l-2.534,3.161a30.057,30.057,0,0,0-18.987-6.661A30.386,30.386,0,1,0,855.4,879.539l4.02.5A34.467,34.467,0,0,1,825.253,910.175Z" transform="translate(-790.815 -841.299)" fill="#2a59a7"/>
      </g>
      <g id="Group_213" data-name="Group 213" transform="translate(58.164 31.15)">
        <path id="Path_471" data-name="Path 471" d="M1165.224,940.741a30.265,30.265,0,0,0-6.426-15.184l3.162-2.534a34.31,34.31,0,0,1,7.284,17.218Z" transform="translate(-1158.798 -923.023)" fill="#2a59a7"/>
      </g>
    </g>
  </g>
</svg>
