<svg id="Layer_1" data-name="Layer 1" xmlns="http://www.w3.org/2000/svg" xmlns:xlink="http://www.w3.org/1999/xlink" viewBox="0 0 47.41 47.42"><defs><style>.cls-1{fill:none;}.cls-2{clip-path:url(#clip-path);}.cls-3{fill:#66a1d3;}</style><clipPath id="clip-path" transform="translate(-1.74 -1.04)"><rect class="cls-1" x="1.74" y="1" width="47.46" height="47.67"/></clipPath></defs><title>CTR</title><g class="cls-2"><path class="cls-3" d="M48.69,41.15l-9.43-9.44L46,27.82A1.58,1.58,0,0,0,45.78,25l-30-12a1.59,1.59,0,0,0-2.06,2.06l12,30a1.58,1.58,0,0,0,2.84.2l3.89-6.73L41.85,48a1.56,1.56,0,0,0,1.12.46A1.57,1.57,0,0,0,44.09,48l4.6-4.61a1.58,1.58,0,0,0,0-2.24ZM43,44.63l-9.78-9.77a1.58,1.58,0,0,0-1.12-.47l-.21,0a1.56,1.56,0,0,0-1.16.78l-3.29,5.69L18,17.32l23.55,9.39L35.88,30a1.6,1.6,0,0,0-.78,1.17,1.63,1.63,0,0,0,.45,1.33l9.78,9.77Zm0,0" transform="translate(-1.74 -1.04)"/></g><path class="cls-3" d="M8.71,5.76A1.59,1.59,0,0,0,6.46,8L10,11.53a1.57,1.57,0,0,0,1.12.46,1.58,1.58,0,0,0,1.12-2.7Zm0,0" transform="translate(-1.74 -1.04)"/><path class="cls-3" d="M9.9,16.72a1.59,1.59,0,0,0-1.59-1.58h-5a1.59,1.59,0,1,0,0,3.17h5A1.59,1.59,0,0,0,9.9,16.72Zm0,0" transform="translate(-1.74 -1.04)"/><path class="cls-3" d="M9.26,21.62,5.73,25.14a1.59,1.59,0,0,0,1.12,2.71A1.55,1.55,0,0,0,8,27.39l3.53-3.53a1.58,1.58,0,0,0-2.24-2.24Zm0,0" transform="translate(-1.74 -1.04)"/><path class="cls-3" d="M17.42,9.2A1.59,1.59,0,0,0,19,7.61v-5a1.59,1.59,0,1,0-3.17,0v5A1.59,1.59,0,0,0,17.42,9.2Zm0,0" transform="translate(-1.74 -1.04)"/><path class="cls-3" d="M23.44,11.26a1.58,1.58,0,0,0,1.12-.46l3.52-3.52A1.59,1.59,0,1,0,25.84,5L22.32,8.56a1.58,1.58,0,0,0,0,2.24,1.57,1.57,0,0,0,1.12.46Zm0,0" transform="translate(-1.74 -1.04)"/></svg>