<svg xmlns="http://www.w3.org/2000/svg" width="340.505" height="332.335" viewBox="0 0 340.505 332.335">
  <g id="Group_923" data-name="Group 923" transform="translate(-11134 2017)">
    <g id="Group_888" data-name="Group 888" transform="translate(11275 -1935)">
      <g id="Group_220" data-name="Group 220" transform="translate(-141 -82)">
        <g id="Group_219" data-name="Group 219">
          <rect id="Rectangle_1639" data-name="Rectangle 1639" width="81.758" height="3.755" transform="matrix(0.566, -0.825, 0.825, 0.566, 39.766, 190.246)" fill="rgba(255,64,201,0.4)"/>
          <path id="Path_472" data-name="Path 472" d="M582.176,1334.75l-64.657-31.943,19.093-27.838,3.1,2.124-16.643,24.266,60.774,30.026Z" transform="translate(-517.519 -1054.582)" fill="rgba(255,64,201,0.4)"/>
          <path id="Path_473" data-name="Path 473" d="M913.258,1539.022l-34.691-17.139,1.663-3.367,33.029,16.317,31.57-15.6,1.663,3.366Z" transform="translate(-743.005 -1206.687)" fill="rgba(255,64,201,0.4)"/>
          <path id="Path_474" data-name="Path 474" d="M1326.238,1275.548l-1.663-3.367,27.907-13.787-34.36-50.095,3.1-2.124,36.81,53.667Z" transform="translate(-1017.523 -1011.619)" fill="rgba(255,64,201,0.4)"/>
          <path id="Path_475" data-name="Path 475" d="M872.684,745.618l-3.1-2.124L907.65,688l37.311,54.4-3.1,2.124L907.65,694.638Z" transform="translate(-737.398 -688)" fill="rgba(255,64,201,0.4)"/>
          <rect id="Rectangle_1640" data-name="Rectangle 1640" width="3.755" height="88.993" transform="matrix(0.443, -0.897, 0.897, 0.443, 61.167, 264.623)" fill="rgba(255,64,201,0.4)"/>
          <path id="Path_476" data-name="Path 476" d="M1280.286,1269.6l-1.663-3.366,29.3-14.474-31.846-46.431,3.1-2.124,34.3,50Z" transform="translate(-991.262 -1009.766)" fill="rgba(255,64,201,0.4)"/>
          <rect id="Rectangle_1641" data-name="Rectangle 1641" width="3.755" height="140.062" transform="matrix(0.825, -0.566, 0.566, 0.825, 205.588, 80.063)" fill="rgba(255,64,201,0.4)"/>
          <g id="Group_218" data-name="Group 218" transform="translate(37.436 42.816)">
            <g id="Group_216" data-name="Group 216" transform="translate(0 170.62)">
              <path id="Path_477" data-name="Path 477" d="M709.957,1368.367a.187.187,0,0,1-.083-.019l-3.029-1.5a.188.188,0,1,1,.166-.336l3.03,1.5a.188.188,0,0,1-.083.356Z" transform="translate(-673.129 -1325.179)" fill="rgba(255,64,201,0.4)"/>
              <path id="Path_478" data-name="Path 478" d="M660.255,1343.812a.179.179,0,0,1-.083-.02l-6.1-3.012a.188.188,0,1,1,.166-.336l6.1,3.012a.188.188,0,0,1-.083.356Zm-12.2-6.025a.187.187,0,0,1-.083-.02l-6.1-3.012a.188.188,0,0,1,.166-.337l6.1,3.013a.188.188,0,0,1-.084.356Z" transform="translate(-632.556 -1305.134)" fill="rgba(255,64,201,0.4)"/>
              <path id="Path_479" data-name="Path 479" d="M620.531,1319.625a.191.191,0,0,1-.083-.019l-3.224-1.593,2.034-2.965a.188.188,0,0,1,.31.213l-1.789,2.608,2.836,1.4a.188.188,0,0,1-.083.356Z" transform="translate(-617.224 -1292.998)" fill="rgba(255,64,201,0.4)"/>
              <path id="Path_480" data-name="Path 480" d="M634.421,1287.676a.185.185,0,0,1-.106-.033.187.187,0,0,1-.048-.261l4.385-6.394a.188.188,0,1,1,.31.212l-4.385,6.394A.187.187,0,0,1,634.421,1287.676Z" transform="translate(-627.847 -1271.726)" fill="rgba(255,64,201,0.4)"/>
              <path id="Path_481" data-name="Path 481" d="M657.781,1259.617a.187.187,0,0,1-.154-.294l1.911-2.787a.188.188,0,1,1,.31.212l-1.911,2.787A.187.187,0,0,1,657.781,1259.617Z" transform="translate(-642.436 -1256.455)" fill="rgba(255,64,201,0.4)"/>
            </g>
            <g id="Group_217" data-name="Group 217" transform="translate(36.64 213.432)">
              <path id="Path_482" data-name="Path 482" d="M885.966,1455.323a.186.186,0,0,1-.083-.02l-3.03-1.5a.188.188,0,0,1,.166-.337l3.03,1.5a.188.188,0,0,1-.083.356Z" transform="translate(-819.693 -1422.298)" fill="rgba(255,64,201,0.4)"/>
              <path id="Path_483" data-name="Path 483" d="M787.515,1406.685a.19.19,0,0,1-.083-.02l-6.669-3.3a.188.188,0,1,1,.166-.336l6.669,3.3a.188.188,0,0,1-.083.356Zm-13.339-6.591a.186.186,0,0,1-.083-.019l-6.669-3.295a.188.188,0,1,1,.166-.337l6.669,3.3a.187.187,0,0,1-.083.355Zm-13.339-6.589a.194.194,0,0,1-.083-.019l-6.669-3.3a.188.188,0,0,1,.166-.337l6.669,3.3a.188.188,0,0,1-.083.356Zm-13.339-6.59a.2.2,0,0,1-.083-.02l-6.669-3.3a.188.188,0,0,1,.166-.337l6.67,3.295a.188.188,0,0,1-.083.357Z" transform="translate(-730.941 -1378.452)" fill="rgba(255,64,201,0.4)"/>
              <path id="Path_484" data-name="Path 484" d="M718.026,1372.353a.194.194,0,0,1-.083-.02l-3.03-1.5a.188.188,0,0,1,.166-.337l3.03,1.5a.188.188,0,0,1-.083.356Z" transform="translate(-714.808 -1370.481)" fill="rgba(255,64,201,0.4)"/>
            </g>
            <path id="Path_485" data-name="Path 485" d="M920.253,1465.5l-30.485-15.061,1.164-2.357,29.321,14.486,37.5-18.524,1.164,2.356Z" transform="translate(-787.437 -1202.991)" fill="rgba(255,64,201,0.4)"/>
            <rect id="Rectangle_1642" data-name="Rectangle 1642" width="53.676" height="2.628" transform="translate(189.733 231.457) rotate(-26.29)" fill="rgba(255,64,201,0.4)"/>
            <path id="Path_486" data-name="Path 486" d="M1242.127,1248.86a.187.187,0,0,1-.084-.356l6.059-2.994a.188.188,0,1,1,.167.337l-6.06,2.994A.182.182,0,0,1,1242.127,1248.86Zm12.118-5.987a.187.187,0,0,1-.083-.356l6.059-2.993a.188.188,0,1,1,.166.336l-6.059,2.994A.186.186,0,0,1,1254.245,1242.873Zm10.15-6.5a.189.189,0,0,1-.155-.082l-3.822-5.573a.188.188,0,0,1,.31-.212l3.823,5.573a.189.189,0,0,1-.049.261A.183.183,0,0,1,1264.4,1236.372Zm-7.645-11.147a.185.185,0,0,1-.155-.082l-3.822-5.573a.188.188,0,1,1,.309-.213l3.823,5.573a.188.188,0,0,1-.155.294Zm-7.646-11.146a.187.187,0,0,1-.155-.082l-3.823-5.574a.188.188,0,0,1,.31-.212l3.822,5.573a.188.188,0,0,1-.048.261A.191.191,0,0,1,1249.1,1214.079Zm-7.645-11.147a.188.188,0,0,1-.155-.082l-3.823-5.573a.188.188,0,1,1,.31-.212l3.822,5.573a.188.188,0,0,1-.048.261A.185.185,0,0,1,1241.459,1202.932Zm-7.645-11.146a.189.189,0,0,1-.156-.082l-3.823-5.574a.188.188,0,1,1,.31-.212l3.822,5.573a.188.188,0,0,1-.048.261A.192.192,0,0,1,1233.814,1191.786Z" transform="translate(-999.801 -1041.732)" fill="rgba(255,64,201,0.4)"/>
            <path id="Path_487" data-name="Path 487" d="M1121.765,1028.419a.186.186,0,0,1-.155-.081l-3.823-5.573a.188.188,0,0,1,.31-.212l3.823,5.574a.187.187,0,0,1-.155.293Zm-7.645-11.146a.186.186,0,0,1-.155-.082l-3.823-5.573a.188.188,0,1,1,.31-.212l3.822,5.573a.188.188,0,0,1-.155.294Zm-7.645-11.147a.187.187,0,0,1-.155-.082l-3.823-5.573a.188.188,0,0,1,.31-.213l3.822,5.573a.188.188,0,0,1-.154.294Zm-7.646-11.147a.187.187,0,0,1-.155-.082l-3.823-5.573a.188.188,0,1,1,.309-.212l3.823,5.573a.188.188,0,0,1-.155.294Zm-7.645-11.147a.186.186,0,0,1-.154-.082l-3.823-5.573a.188.188,0,0,1,.31-.212l3.823,5.573a.188.188,0,0,1-.155.294Zm-7.646-11.147a.188.188,0,0,1-.155-.082l-3.823-5.573a.188.188,0,0,1,.31-.212l3.822,5.573a.187.187,0,0,1-.048.261A.19.19,0,0,1,1083.537,972.685Zm-7.645-11.147a.188.188,0,0,1-.155-.082l-3.822-5.573a.188.188,0,0,1,.309-.213l3.822,5.573a.188.188,0,0,1-.154.294Zm-7.646-11.147a.19.19,0,0,1-.156-.082l-3.822-5.573a.188.188,0,0,1,.31-.213l3.822,5.573a.188.188,0,0,1-.048.261A.191.191,0,0,1,1068.247,950.392Zm-7.646-11.147a.187.187,0,0,1-.155-.081l-3.823-5.573a.188.188,0,1,1,.31-.213l3.823,5.573a.189.189,0,0,1-.048.261A.191.191,0,0,1,1060.6,939.244Z" transform="translate(-891.624 -884.011)" fill="rgba(255,64,201,0.4)"/>
            <path id="Path_488" data-name="Path 488" d="M876.955,856.168l-2.167-1.487L910.9,802.034l33.422,48.729-2.167,1.487L910.9,806.681Z" transform="translate(-778.081 -802.034)" fill="rgba(255,64,201,0.4)"/>
            <rect id="Rectangle_1643" data-name="Rectangle 1643" width="62.382" height="2.628" transform="translate(39.504 136.05) rotate(-55.557)" fill="rgba(255,64,201,0.4)"/>
            <rect id="Rectangle_1644" data-name="Rectangle 1644" width="41.247" height="2.628" transform="translate(16.174 170.065) rotate(-55.557)" fill="rgba(255,64,201,0.4)"/>
          </g>
          <path id="Path_489" data-name="Path 489" d="M789.707,1096.069l-.415-.206-108.553-53.629L789.707,883.36l108.969,158.874Zm-106.2-54.558,106.2,52.464,106.2-52.464-106.2-154.832Z" transform="translate(-619.455 -810.009)" fill="rgba(255,64,201,0.4)" opacity="0.1"/>
          <path id="Path_490" data-name="Path 490" d="M822.918,1120.742l-89-43.971.368-.536,88.635-129.228,89,129.764-.582.288Zm-87.339-44.406,87.339,43.149,87.339-43.149L822.918,949Z" transform="translate(-652.665 -849.759)" fill="rgba(255,64,201,0.4)" opacity="0.08"/>
          <path id="Path_491" data-name="Path 491" d="M858.9,1147.472l-67.373-33.285,67.373-98.229,67.374,98.229Zm-65.709-33.72,65.709,32.463,65.71-32.463-65.71-95.8Z" transform="translate(-688.644 -892.821)" fill="rgba(255,64,201,0.4)" opacity="0.06"/>
          <path id="Path_492" data-name="Path 492" d="M901.331,1179l-41.861-20.681,41.861-61.034,41.862,61.034Zm-40.2-21.115,40.2,19.859,40.2-19.859-40.2-58.608Z" transform="translate(-731.079 -943.612)" fill="rgba(255,64,201,0.4)" opacity="0.04"/>
          <path id="Path_493" data-name="Path 493" d="M938.232,1206.413l-19.678-9.721L938.232,1168l19.677,28.689Zm-19.123-9.866,19.123,9.447,19.123-9.447-19.123-27.88Z" transform="translate(-767.979 -987.778)" fill="rgba(255,64,201,0.4)" opacity="0.03"/>
        </g>
      </g>
    </g>
    <g id="Group_918" data-name="Group 918" transform="translate(9984.824 -3447.835)">
      <g id="Group_249" data-name="Group 249" transform="translate(1282.252 1618.12)">
        <path id="Path_528" data-name="Path 528" d="M1186.024,1425.417l-6.868-6.866.608-.64a15.438,15.438,0,0,1,12.536-5.636h67.5c5.506-2.3,30.123-26.127,35.695-32.366,3.048-3.419,16.353-23.352,21.962-34.4a17.555,17.555,0,0,0-12.384-1.338c-6.3,1.46-10.537,5.889-16.2,16.913a4.867,4.867,0,0,1-2.08,2.091l-22.258,11.555-4.476-8.62,20.9-10.848c5.771-10.921,11.6-18.155,21.925-20.547,11.407-2.683,20.643,1.613,24.414,6.69a4.853,4.853,0,0,1,.569,4.8c-4.731,11.061-21.3,35.878-25.121,40.165-.317.361-33.417,35.613-42.466,35.613H1192.3c-3.062,0-3.954.958-5.423,2.542Z" transform="translate(-1179.157 -1333.891)" fill="#ff40c9"/>
      </g>
      <g id="Group_250" data-name="Group 250" transform="translate(1243.409 1633.383)">
        <path id="Path_529" data-name="Path 529" d="M1233.719,1399.469h-38.843v-9.709h38.843c6.708,0,9.71-3.656,9.71-7.283s-3-7.283-9.71-7.283h-25.652c-3.437,0-6.477-2.329-10-5.027-2.438-1.862-6.117-4.685-8.047-4.685h-24.276c-4.652,0-11.626,4.23-16.111,8.407l-19.3,19.3-6.865-6.866,19.421-19.421c5.575-5.2,14.8-11.132,22.854-11.132h24.276c5.22,0,9.857,3.552,13.95,6.684a26.939,26.939,0,0,0,4.5,3.069l25.244-.043c12.75,0,19.421,8.55,19.421,17S1246.469,1399.469,1233.719,1399.469Z" transform="translate(-1123.469 -1355.773)" fill="#ff40c9"/>
      </g>
      <g id="Group_251" data-name="Group 251" transform="translate(1208 1652.804)">
        <path id="Path_530" data-name="Path 530" d="M1135.823,1475.869a4.84,4.84,0,0,1-3.432-1.423l-58.264-58.264a4.85,4.85,0,0,1,0-6.865l24.276-24.276a4.85,4.85,0,0,1,6.865,0l58.264,58.261a4.855,4.855,0,0,1,0,6.868l-24.277,24.276A4.838,4.838,0,0,1,1135.823,1475.869Zm-51.4-63.12,51.4,51.4,17.41-17.411-51.4-51.4Z" transform="translate(-1072.704 -1383.617)" fill="#ff40c9"/>
      </g>
      <g id="Group_252" data-name="Group 252" transform="translate(1233.699 1678.503)">
        <rect id="Rectangle_1651" data-name="Rectangle 1651" width="9.71" height="13.733" transform="translate(0 6.866) rotate(-45)" fill="#ff40c9"/>
      </g>
      <g id="Group_253" data-name="Group 253" transform="translate(1280.83 1545.987)">
        <path id="Path_531" data-name="Path 531" d="M1186.829,1313.016h-9.711v-77.684a4.853,4.853,0,0,1,4.856-4.856h38.842v9.708h-33.987Z" transform="translate(-1177.118 -1230.476)" fill="#ff40c9"/>
      </g>
      <g id="Group_254" data-name="Group 254" transform="translate(1319.672 1512)">
        <path id="Path_532" data-name="Path 532" d="M1281.359,1307.987h-9.709V1191.461h-29.133v111.671H1232.8V1186.6a4.851,4.851,0,0,1,4.856-4.854H1276.5a4.851,4.851,0,0,1,4.855,4.854Z" transform="translate(-1232.805 -1181.75)" fill="#ff40c9"/>
      </g>
      <g id="Group_255" data-name="Group 255" transform="translate(1363.37 1579.974)">
        <path id="Path_533" data-name="Path 533" d="M1339.151,1313.189h-9.711v-24.275h-33.987v-9.71H1334.3a4.853,4.853,0,0,1,4.855,4.855Z" transform="translate(-1295.453 -1279.203)" fill="#ff40c9"/>
      </g>
    </g>
  </g>
</svg>
