<?xml version="1.0" encoding="utf-8"?>
<!-- Generator: Adobe Illustrator 22.0.0, SVG Export Plug-In . SVG Version: 6.00 Build 0)  -->
<svg version="1.1" id="Layer_1" xmlns="http://www.w3.org/2000/svg" xmlns:xlink="http://www.w3.org/1999/xlink" x="0px" y="0px"
	 viewBox="0 0 50 50" style="enable-background:new 0 0 50 50;" xml:space="preserve">
<style type="text/css">
	.st0{fill:#66A1D3;}
	.st1{clip-path:url(#SVGID_2_);fill:#66A1D3;}
</style>
<g>
	<path class="st0" d="M6.4,15.8L6.4,15.8c0.1,0,0.2,0,0.3,0c0.4,0,0.8-0.3,0.9-0.7c0.1-0.5-0.1-1-0.6-1.1l0,0
		c-0.5-0.1-1,0.1-1.1,0.6C5.6,15.2,5.9,15.7,6.4,15.8L6.4,15.8z M6.4,15.8"/>
	<path class="st0" d="M9.9,15.8L9.9,15.8c0.1,0,0.2,0,0.3,0c0.4,0,0.8-0.3,0.9-0.7c0.1-0.5-0.1-1-0.6-1.1l0,0
		c-0.5-0.1-1,0.1-1.1,0.6C9.1,15.2,9.4,15.7,9.9,15.8L9.9,15.8z M9.9,15.8"/>
	<path class="st0" d="M13.3,15.8L13.3,15.8c0.1,0,0.2,0,0.3,0c0.4,0,0.8-0.3,0.9-0.7c0.1-0.5-0.1-1-0.6-1.1l0,0
		c-0.5-0.1-1,0.1-1.1,0.6C12.6,15.2,12.9,15.7,13.3,15.8L13.3,15.8z M13.3,15.8"/>
	<path class="st0" d="M45.7,5.8h-1.6c-0.5,0-0.9,0.4-0.9,0.9c0,0.5,0.4,0.9,0.9,0.9h1.6c0.6,0,1.1,0.5,1.1,1.1v11.2
		c0,0.6-0.5,1.1-1.1,1.1H34.4c-0.3,0-0.5,0.1-0.7,0.3l-2.5,2.9l-2.8-2.9C28.3,21.1,28,21,27.8,21h-2.7c-0.6,0-1.1-0.5-1.1-1.1V8.8
		c0-0.6,0.5-1.1,1.1-1.1h11.8c0.5,0,0.9-0.4,0.9-0.9s-0.4-0.9-0.9-0.9H25.1c-1.6,0-2.9,1.3-2.9,2.9v2.2h-19c-0.5,0-0.9,0.4-0.9,0.9
		v32.7c0,0.5,0.4,0.9,0.9,0.9h7.2c0,0,0,0,0,0h4.2c0,0,0,0,0,0h27.2c0.5,0,0.9-0.4,0.9-0.9V22.9h3.1c1.6,0,2.9-1.3,2.9-2.9V8.8
		C48.6,7.2,47.3,5.8,45.7,5.8L45.7,5.8z M22.1,12.8v4.4H4v-4.4H22.1z M10.3,33.3H7.8v-2.2h2.5c0.5,0,0.9-0.4,0.9-0.9v-3
		c0-2.8,1.5-4.4,4.1-4.4c0,0,0.1,0,0.1,0c0.6,0,1.2,0,1.8,0.1c0.1,0,0.2,0,0.3,0c0,0,0.1,0,0.1,0v1.8h-1.2c-1.1,0-1.8,0.3-2.3,0.9
		c-0.5,0.6-0.6,1.4-0.6,2v2.6c0,0.5,0.4,0.9,0.9,0.9h3l-0.3,2.2h-2.7c-0.5,0-0.9,0.4-0.9,0.9v9.4h-2.3v-9.4
		C11.2,33.7,10.8,33.3,10.3,33.3L10.3,33.3z M40.8,31.4H29.3c-0.5,0-0.9,0.4-0.9,0.9c0,0.5,0.4,0.9,0.9,0.9h11.5v2H26.3
		c-0.5,0-0.9,0.4-0.9,0.9c0,0.5,0.4,0.9,0.9,0.9h14.5v2H23.1c-0.5,0-0.9,0.4-0.9,0.9s0.4,0.9,0.9,0.9h17.8v2.8H15.4v-8.5H18
		c0.5,0,0.9-0.3,0.9-0.8l0.5-4c0-0.3,0-0.5-0.2-0.7c-0.2-0.2-0.4-0.3-0.7-0.3h-3.1v-1.7c0-0.4,0.1-0.7,0.2-0.8
		c0.1-0.1,0.5-0.2,0.9-0.2h2.1c0.5,0,0.9-0.4,0.9-0.9V22c0-0.5-0.3-0.8-0.8-0.9c-0.2,0-0.4,0-0.7-0.1c-0.1,0-0.2,0-0.3,0
		c-0.1,0-0.2,0-0.3,0c-0.6,0-1.3-0.1-1.9-0.1c-0.1,0-0.1,0-0.2,0c-1.8,0-3.2,0.6-4.3,1.7c-1.1,1.1-1.7,2.7-1.7,4.6v2.1H6.9
		c-0.5,0-0.9,0.4-0.9,0.9v4c0,0.5,0.4,0.9,0.9,0.9h2.5v8.5H4V19h18.1v0.9c0,1.6,1.3,2.9,2.9,2.9h2.4l3.2,3.3
		c0.2,0.2,0.4,0.3,0.7,0.3c0,0,0,0,0,0c0.3,0,0.5-0.1,0.7-0.3l2.9-3.3h6V31.4z M40.8,31.4"/>
	<path class="st0" d="M26.8,14.1c0,1.4,1.1,2.5,2.5,2.5c1.4,0,2.5-1.1,2.5-2.5c0-1.4-1.1-2.5-2.5-2.5C27.9,11.6,26.8,12.7,26.8,14.1
		L26.8,14.1z M30,14.1c0,0.4-0.3,0.7-0.7,0.7c-0.4,0-0.7-0.3-0.7-0.7c0-0.4,0.3-0.7,0.7-0.7C29.7,13.4,30,13.7,30,14.1L30,14.1z
		 M30,14.1"/>
	<path class="st0" d="M35.4,11.6c-1.4,0-2.5,1.1-2.5,2.5c0,1.4,1.1,2.5,2.5,2.5c1.4,0,2.5-1.1,2.5-2.5
		C37.9,12.7,36.8,11.6,35.4,11.6L35.4,11.6z M35.4,14.8c-0.4,0-0.7-0.3-0.7-0.7c0-0.4,0.3-0.7,0.7-0.7c0.4,0,0.7,0.3,0.7,0.7
		C36.1,14.5,35.8,14.8,35.4,14.8L35.4,14.8z M35.4,14.8"/>
	<g>
		<defs>
			<rect id="SVGID_1_" x="2.2" y="5.8" width="46.5" height="39.6"/>
		</defs>
		<clipPath id="SVGID_2_">
			<use xlink:href="#SVGID_1_"  style="overflow:visible;"/>
		</clipPath>
		<path class="st1" d="M41.5,16.6c1.4,0,2.5-1.1,2.5-2.5c0-1.4-1.1-2.5-2.5-2.5c-1.4,0-2.5,1.1-2.5,2.5C39,15.5,40.1,16.6,41.5,16.6
			L41.5,16.6z M41.5,13.4c0.4,0,0.7,0.3,0.7,0.7c0,0.4-0.3,0.7-0.7,0.7c-0.4,0-0.7-0.3-0.7-0.7C40.8,13.7,41.1,13.4,41.5,13.4
			L41.5,13.4z M41.5,13.4"/>
		<path class="st1" d="M40.2,7.6L40.2,7.6c0.1,0,0.2,0,0.3,0c0.4,0,0.8-0.3,0.9-0.7c0.1-0.5-0.1-1-0.6-1.1l0,0
			c-0.5-0.1-1,0.1-1.1,0.6C39.4,7,39.7,7.5,40.2,7.6L40.2,7.6z M40.2,7.6"/>
	</g>
	<path class="st0" d="M19.7,39.1L19.7,39.1c-0.5-0.1-1,0.1-1.2,0.6c-0.1,0.5,0.1,1,0.6,1.1l0,0c0.1,0,0.2,0,0.3,0
		c0.4,0,0.8-0.3,0.9-0.7C20.4,39.8,20.2,39.3,19.7,39.1L19.7,39.1z M19.7,39.1"/>
</g>
</svg>
