<svg xmlns="http://www.w3.org/2000/svg" width="66.017" height="63.548" viewBox="0 0 66.017 63.548">
  <g id="Group_730" data-name="Group 730" transform="translate(-215.072 -581.214)">
    <g id="Group_683" data-name="Group 683" transform="translate(215.072 581.214)">
      <path id="Path_3570" data-name="Path 3570" d="M193.192,581.214,206.441,601.1,192.5,605.746l.691-24.531Z" transform="translate(-160.246 -581.214)" fill="#fff" fill-rule="evenodd"/>
      <path id="Path_3571" data-name="Path 3571" d="M187.9,581.214l-.693,24.6-12.046-6.053L187.9,581.214Z" transform="translate(-154.951 -581.214)" fill="#fff" fill-rule="evenodd"/>
      <path id="Path_3572" data-name="Path 3572" d="M206.924,611.582l9.583,14.251-24.779,8.259.367-17.642,14.829-4.867Z" transform="translate(-160.009 -590.485)" fill="#fff" fill-rule="evenodd"/>
      <path id="Path_3573" data-name="Path 3573" d="M170.153,609.355l12.7,6.38-.5,17.648L161.014,622.66l9.138-13.305Z" transform="translate(-150.633 -589.805)" fill="#fff" fill-rule="evenodd"/>
      <path id="Path_3574" data-name="Path 3574" d="M216.953,633.592l8.826,13.247L190.92,660.752l.525-18.659,25.507-8.5Z" transform="translate(-159.763 -597.204)" fill="#fff" fill-rule="evenodd"/>
      <path id="Path_3575" data-name="Path 3575" d="M155.764,629.95,177.754,641l-.525,18.64-31.157-15.579,9.692-14.112Z" transform="translate(-146.072 -596.092)" fill="#fff" fill-rule="evenodd"/>
    </g>
  </g>
</svg>
