<svg xmlns="http://www.w3.org/2000/svg" width="138.351" height="135.031" viewBox="0 0 138.351 135.031">
  <g id="Group_893" data-name="Group 893" transform="translate(-10574.077 2329.348)">
    <g id="Group_221" data-name="Group 221" transform="translate(10574.077 -2329.348)">
      <g id="Group_220" data-name="Group 220" transform="translate(0 0)">
        <g id="Group_219" data-name="Group 219">
          <rect id="Rectangle_1639" data-name="Rectangle 1639" width="33.219" height="1.526" transform="matrix(0.566, -0.825, 0.825, 0.566, 16.157, 77.299)" fill="rgba(42,89,167,0.2)"/>
          <path id="Path_472" data-name="Path 472" d="M543.79,1299.259l-26.271-12.979,7.758-11.311,1.258.863-6.762,9.859,24.693,12.2Z" transform="translate(-517.519 -1185.424)" fill="rgba(42,89,167,0.2)"/>
          <path id="Path_473" data-name="Path 473" d="M892.662,1526.849l-14.1-6.964.676-1.368,13.42,6.63,12.827-6.337.676,1.368Z" transform="translate(-823.487 -1391.818)" fill="rgba(42,89,167,0.2)"/>
          <path id="Path_474" data-name="Path 474" d="M1321.42,1234.363l-.676-1.368,11.339-5.6-13.961-20.354,1.258-.863,14.956,21.806Z" transform="translate(-1195.986 -1127.125)" fill="rgba(42,89,167,0.2)"/>
          <path id="Path_475" data-name="Path 475" d="M870.846,711.411l-1.258-.863L885.053,688l15.16,22.1-1.258.863-13.9-20.269Z" transform="translate(-815.878 -688)" fill="rgba(42,89,167,0.2)"/>
          <rect id="Rectangle_1640" data-name="Rectangle 1640" width="1.526" height="36.159" transform="matrix(0.443, -0.897, 0.897, 0.443, 24.853, 107.519)" fill="rgba(42,89,167,0.2)"/>
          <path id="Path_476" data-name="Path 476" d="M1277.784,1230.187l-.676-1.367,11.9-5.881-12.939-18.865,1.258-.863,13.935,20.317Z" transform="translate(-1160.351 -1124.612)" fill="rgba(42,89,167,0.2)"/>
          <rect id="Rectangle_1641" data-name="Rectangle 1641" width="1.526" height="56.909" transform="matrix(0.825, -0.566, 0.566, 0.825, 83.533, 32.53)" fill="rgba(42,89,167,0.2)"/>
          <g id="Group_218" data-name="Group 218" transform="translate(15.211 17.396)">
            <g id="Group_216" data-name="Group 216" transform="translate(0 69.324)">
              <path id="Path_477" data-name="Path 477" d="M708.047,1367.256a.076.076,0,0,1-.034-.008l-1.231-.608a.076.076,0,0,1,.068-.137l1.231.608a.076.076,0,0,1-.034.145Z" transform="translate(-693.083 -1349.708)" fill="rgba(42,89,167,0.2)"/>
              <path id="Path_478" data-name="Path 478" d="M649.282,1338.224a.073.073,0,0,1-.034-.008l-2.478-1.224a.076.076,0,1,1,.068-.137l2.478,1.224a.076.076,0,0,1-.034.145Zm-4.956-2.448a.075.075,0,0,1-.034-.008l-2.478-1.224a.076.076,0,0,1,.067-.137l2.478,1.224a.076.076,0,0,1-.034.145Z" transform="translate(-638.028 -1322.508)" fill="rgba(42,89,167,0.2)"/>
              <path id="Path_479" data-name="Path 479" d="M618.568,1316.86a.077.077,0,0,1-.034-.008l-1.31-.647.826-1.2a.076.076,0,0,1,.126.086l-.727,1.06,1.152.569a.076.076,0,0,1-.034.145Z" transform="translate(-617.224 -1306.041)" fill="rgba(42,89,167,0.2)"/>
              <path id="Path_480" data-name="Path 480" d="M634.31,1283.657a.075.075,0,0,1-.043-.014.076.076,0,0,1-.02-.106l1.782-2.6a.076.076,0,1,1,.126.086l-1.782,2.6A.076.076,0,0,1,634.31,1283.657Z" transform="translate(-631.639 -1277.176)" fill="rgba(42,89,167,0.2)"/>
              <path id="Path_481" data-name="Path 481" d="M657.67,1257.74a.077.077,0,0,1-.043-.013.076.076,0,0,1-.02-.106l.776-1.132a.076.076,0,1,1,.126.086l-.777,1.132A.076.076,0,0,1,657.67,1257.74Z" transform="translate(-651.435 -1256.455)" fill="rgba(42,89,167,0.2)"/>
            </g>
            <g id="Group_217" data-name="Group 217" transform="translate(14.887 86.72)">
              <path id="Path_482" data-name="Path 482" d="M884.056,1454.211a.076.076,0,0,1-.034-.008l-1.231-.608a.076.076,0,0,1,.068-.137l1.231.608a.076.076,0,0,1-.034.145Z" transform="translate(-857.129 -1440.793)" fill="rgba(42,89,167,0.2)"/>
              <path id="Path_483" data-name="Path 483" d="M759.686,1392.768a.077.077,0,0,1-.034-.008l-2.71-1.339a.076.076,0,1,1,.068-.137l2.71,1.339a.076.076,0,0,1-.034.145Zm-5.42-2.678a.076.076,0,0,1-.034-.008l-2.71-1.339a.076.076,0,1,1,.068-.137l2.71,1.339a.076.076,0,0,1-.034.144Zm-5.42-2.677a.079.079,0,0,1-.034-.008l-2.71-1.339a.076.076,0,0,1,.068-.137l2.71,1.339a.076.076,0,0,1-.034.145Zm-5.42-2.677a.078.078,0,0,1-.034-.008l-2.71-1.339a.076.076,0,0,1,.068-.137l2.71,1.339a.076.076,0,0,1-.034.145Z" transform="translate(-736.7 -1381.297)" fill="rgba(42,89,167,0.2)"/>
              <path id="Path_484" data-name="Path 484" d="M716.115,1371.241a.079.079,0,0,1-.034-.008l-1.231-.608a.076.076,0,0,1,.068-.137l1.231.608a.076.076,0,0,1-.034.145Z" transform="translate(-714.808 -1370.481)" fill="rgba(42,89,167,0.2)"/>
            </g>
            <path id="Path_485" data-name="Path 485" d="M902.155,1452.762l-12.387-6.12.473-.958,11.914,5.886,15.235-7.526.473.958Z" transform="translate(-848.19 -1346.102)" fill="rgba(42,89,167,0.2)"/>
            <rect id="Rectangle_1642" data-name="Rectangle 1642" width="21.809" height="1.068" transform="translate(77.09 94.043) rotate(-26.29)" fill="rgba(42,89,167,0.2)"/>
            <path id="Path_486" data-name="Path 486" d="M1234.81,1211.444a.076.076,0,0,1-.034-.145l2.462-1.216a.076.076,0,1,1,.068.137l-2.462,1.216A.074.074,0,0,1,1234.81,1211.444Zm4.924-2.433a.076.076,0,0,1-.034-.145l2.462-1.216a.076.076,0,1,1,.068.137l-2.462,1.216A.077.077,0,0,1,1239.734,1209.011Zm4.124-2.641a.077.077,0,0,1-.063-.033l-1.553-2.264a.076.076,0,0,1,.126-.086l1.553,2.264a.077.077,0,0,1-.02.106A.074.074,0,0,1,1243.858,1206.37Zm-3.106-4.529a.075.075,0,0,1-.063-.033l-1.553-2.264a.076.076,0,1,1,.125-.087l1.553,2.265a.076.076,0,0,1-.063.12Zm-3.106-4.529a.076.076,0,0,1-.063-.033l-1.553-2.265a.076.076,0,0,1,.126-.086l1.553,2.264a.077.077,0,0,1-.02.106A.077.077,0,0,1,1237.646,1197.312Zm-3.106-4.529a.076.076,0,0,1-.063-.033l-1.553-2.265a.076.076,0,1,1,.126-.086l1.553,2.264a.076.076,0,0,1-.02.106A.075.075,0,0,1,1234.539,1192.782Zm-3.106-4.529a.077.077,0,0,1-.063-.033l-1.553-2.265a.076.076,0,1,1,.126-.086l1.553,2.264a.077.077,0,0,1-.02.106A.078.078,0,0,1,1231.433,1188.254Z" transform="translate(-1136.351 -1127.285)" fill="rgba(42,89,167,0.2)"/>
            <path id="Path_487" data-name="Path 487" d="M1083.072,971.945a.075.075,0,0,1-.063-.033l-1.553-2.265a.076.076,0,1,1,.126-.086l1.553,2.265a.076.076,0,0,1-.063.119Zm-3.106-4.529a.076.076,0,0,1-.063-.033l-1.553-2.264a.076.076,0,1,1,.126-.086l1.553,2.264a.076.076,0,0,1-.063.12Zm-3.106-4.529a.076.076,0,0,1-.063-.033l-1.553-2.264a.076.076,0,0,1,.126-.086l1.553,2.265a.076.076,0,0,1-.063.119Zm-3.107-4.529a.076.076,0,0,1-.063-.033l-1.553-2.264a.076.076,0,1,1,.126-.086l1.553,2.265a.076.076,0,0,1-.063.119Zm-3.106-4.529a.075.075,0,0,1-.063-.033l-1.554-2.265a.076.076,0,0,1,.126-.086l1.553,2.265a.076.076,0,0,1-.063.12Zm-3.106-4.529a.076.076,0,0,1-.063-.033L1065.924,947a.076.076,0,0,1,.126-.086l1.553,2.265a.076.076,0,0,1-.02.106A.077.077,0,0,1,1067.54,949.3Zm-3.106-4.529a.076.076,0,0,1-.063-.033l-1.553-2.264a.076.076,0,1,1,.125-.086l1.553,2.265a.076.076,0,0,1-.063.12Zm-3.106-4.529a.077.077,0,0,1-.063-.033l-1.553-2.264a.076.076,0,0,1,.126-.086l1.553,2.265a.076.076,0,0,1-.02.106A.078.078,0,0,1,1061.327,940.242Zm-3.106-4.529a.076.076,0,0,1-.063-.033l-1.553-2.264a.076.076,0,1,1,.126-.086l1.553,2.264a.076.076,0,0,1-.063.119Z" transform="translate(-989.563 -913.271)" fill="rgba(42,89,167,0.2)"/>
            <path id="Path_488" data-name="Path 488" d="M875.668,824.029l-.881-.6,14.672-21.391,13.58,19.8-.881.6-12.7-18.515Z" transform="translate(-835.495 -802.034)" fill="rgba(42,89,167,0.2)"/>
            <rect id="Rectangle_1643" data-name="Rectangle 1643" width="25.347" height="1.068" transform="translate(16.051 55.279) rotate(-55.557)" fill="rgba(42,89,167,0.2)"/>
            <rect id="Rectangle_1644" data-name="Rectangle 1644" width="16.759" height="1.068" transform="translate(6.572 69.099) rotate(-55.557)" fill="rgba(42,89,167,0.2)"/>
          </g>
          <path id="Path_489" data-name="Path 489" d="M725.014,969.786l-.169-.083-44.106-21.79,44.275-64.552,44.275,64.552Zm-43.148-22.167,43.148,21.317,43.148-21.317-43.148-62.91Z" transform="translate(-655.839 -853.557)" fill="rgba(42,89,167,0.2)" opacity="0.1"/>
          <path id="Path_490" data-name="Path 490" d="M770.078,1017.6l-36.163-17.866.149-.218,36.013-52.507,36.163,52.724-.237.117Zm-35.487-18.042,35.487,17.532,35.487-17.532-35.487-51.739Z" transform="translate(-700.902 -907.494)" fill="rgba(42,89,167,0.2)" opacity="0.08"/>
          <path id="Path_491" data-name="Path 491" d="M818.9,1069.393l-27.374-13.524,27.374-39.911,27.375,39.911Zm-26.7-13.7,26.7,13.19,26.7-13.19-26.7-38.926Z" transform="translate(-749.722 -965.926)" fill="rgba(42,89,167,0.2)" opacity="0.06"/>
          <path id="Path_492" data-name="Path 492" d="M876.478,1130.485l-17.009-8.4,17.009-24.8,17.009,24.8Zm-16.333-8.579,16.333,8.069,16.333-8.069-16.333-23.813Z" transform="translate(-807.303 -1034.845)" fill="rgba(42,89,167,0.2)" opacity="0.04"/>
          <path id="Path_493" data-name="Path 493" d="M926.549,1183.609l-8-3.95,8-11.657,8,11.657Zm-7.77-4.009,7.77,3.839,7.77-3.839-7.77-11.328Z" transform="translate(-857.374 -1094.776)" fill="rgba(42,89,167,0.2)" opacity="0.03"/>
        </g>
      </g>
    </g>
    <g id="Group_892" data-name="Group 892" transform="translate(10608.207 -2284.654)">
      <g id="gallery" transform="translate(0 0)">
        <g id="Group_889" data-name="Group 889" transform="translate(0)">
          <g id="Group_888" data-name="Group 888">
            <path id="Path_3644" data-name="Path 3644" d="M70.017,36.175V1.167A1.167,1.167,0,0,0,68.85,0H15.171A1.167,1.167,0,0,0,14,1.167V14H1.168A1.167,1.167,0,0,0,0,15.17V50.178a1.167,1.167,0,0,0,1.167,1.167H10.5a1.15,1.15,0,0,0,.261-.053l6.816,17.971a1.167,1.167,0,0,0,1.505.677l.012,0L69.276,50.1a1.167,1.167,0,0,0,.658-1.513v0L65.519,37.342h3.33A1.167,1.167,0,0,0,70.017,36.175ZM2.335,49.011V16.337H52.668L46.4,18.671H5.836a1.167,1.167,0,0,0-1.167,1.167V45.51a1.167,1.167,0,0,0,1.167,1.167H9.014L9.9,49.011ZM54.846,14H21.006V7H63.015V30.34h-.246L57.1,15.91a1.167,1.167,0,0,0-1.086-.732V15.17A1.167,1.167,0,0,0,54.846,14ZM15.093,23.46a4.661,4.661,0,0,0-3.849,8.291L7,33.329V21H40.124L18.555,29.032A4.639,4.639,0,0,0,15.093,23.46Zm1.245,4.546A2.334,2.334,0,1,1,14,25.672,2.334,2.334,0,0,1,16.338,28.006ZM8.129,44.343H7V41.375Zm59.21,4.011-48,18.978-12-31.64,48-17.861Zm.344-13.346H64.6l-.917-2.334h.5a1.167,1.167,0,0,0,1.167-1.167V5.835a1.167,1.167,0,0,0-1.167-1.167H19.839a1.167,1.167,0,0,0-1.167,1.167V14H16.338V2.334H67.683Z" transform="translate(-0.001)" fill="#2a59a7"/>
          </g>
        </g>
        <g id="Group_891" data-name="Group 891" transform="translate(10.498 21.003)">
          <g id="Group_890" data-name="Group 890">
            <path id="Path_3645" data-name="Path 3645" d="M125.579,169.248l-1.113-2.917a1.141,1.141,0,0,0-.391-1.026l-7.831-20.562a1.167,1.167,0,0,0-1.505-.677l-.012,0L72.717,160.407a1.167,1.167,0,0,0-.669,1.5l9.335,24.505a1.167,1.167,0,0,0,1.095.751,1.144,1.144,0,0,0,.422-.079l42.009-16.337A1.167,1.167,0,0,0,125.579,169.248Zm-40.524-3.8a1.167,1.167,0,0,0-.24.639l-1.137,18.192-.527.2-8.5-22.324,39.834-15.487,6.425,16.862-12.2-6.57a1.167,1.167,0,0,0-1.72,1.027v2.487L98.3,154.689a1.167,1.167,0,0,0-1.8.817L94.4,171.17l-7.712-5.931A1.167,1.167,0,0,0,85.055,165.451Zm1.019,17.9.934-14.925L99.581,178.1Zm15.985-6.215a1.1,1.1,0,0,0-.2-.226l-5.322-4.094,2.019-15.144,8.946,5.964a1.167,1.167,0,0,0,1.815-.972v-2.714l12.857,6.923.81,2.125Z" transform="translate(-71.972 -143.99)" fill="#2a59a7"/>
          </g>
        </g>
      </g>
    </g>
  </g>
</svg>
