<svg xmlns="http://www.w3.org/2000/svg" width="339.46" height="331.313" viewBox="0 0 339.46 331.313">
  <g id="Group_920" data-name="Group 920" transform="translate(-9617.948 2220.978)">
    <g id="Group_204" data-name="Group 204" transform="translate(9617.948 -2220.978)">
      <g id="Group_203" data-name="Group 203" transform="translate(0 0)" opacity="0.35">
        <g id="Group_202" data-name="Group 202">
          <rect id="Rectangle_1633" data-name="Rectangle 1633" width="82.236" height="3.777" transform="matrix(0.566, -0.825, 0.825, 0.566, 39.998, 189.973)" fill="rgba(47,85,150,0.4)"/>
          <path id="Path_441" data-name="Path 441" d="M628.535,1204.1l-65.035-32.13,19.205-28,3.114,2.136-16.741,24.407,61.13,30.2Z" transform="translate(-563.5 -924.691)" fill="rgba(47,85,150,0.4)"/>
          <path id="Path_442" data-name="Path 442" d="M959.442,1408.141,924.547,1390.9l1.673-3.386,33.222,16.412,31.755-15.687,1.673,3.386Z" transform="translate(-789.704 -1076.828)" fill="rgba(47,85,150,0.4)"/>
          <path id="Path_443" data-name="Path 443" d="M1372.267,1144.953l-1.673-3.386,28.07-13.868-34.56-50.387,3.115-2.136,37.024,53.98Z" transform="translate(-1064.783 -881.674)" fill="rgba(47,85,150,0.4)"/>
          <path id="Path_444" data-name="Path 444" d="M918.683,614.955l-3.114-2.136L953.854,557l37.529,54.717-3.114,2.136-34.415-50.176Z" transform="translate(-784.119 -557)" fill="rgba(47,85,150,0.4)"/>
          <rect id="Rectangle_1634" data-name="Rectangle 1634" width="3.777" height="89.513" transform="matrix(0.443, -0.897, 0.897, 0.443, 60.808, 263.206)" fill="rgba(47,85,150,0.4)"/>
          <path id="Path_445" data-name="Path 445" d="M1326.292,1138.992l-1.673-3.386,29.467-14.558-32.032-46.7,3.114-2.137,34.5,50.295Z" transform="translate(-1038.614 -879.791)" fill="rgba(47,85,150,0.4)"/>
          <rect id="Rectangle_1635" data-name="Rectangle 1635" width="3.777" height="140.88" transform="matrix(0.825, -0.566, 0.566, 0.825, 204.373, 79.455)" fill="rgba(47,85,150,0.4)"/>
          <g id="Group_201" data-name="Group 201" transform="translate(37.655 43.066)">
            <g id="Group_199" data-name="Group 199" transform="translate(0 169.311)">
              <path id="Path_446" data-name="Path 446" d="M755.957,1237.378a.2.2,0,0,1-.083-.019l-3.047-1.506a.189.189,0,1,1,.168-.338l3.047,1.5a.189.189,0,0,1-.084.359Z" transform="translate(-718.914 -1193.938)" fill="rgba(47,85,150,0.4)"/>
              <path id="Path_447" data-name="Path 447" d="M706.344,1212.867a.193.193,0,0,1-.083-.019l-6.134-3.031a.189.189,0,1,1,.167-.338l6.134,3.03a.189.189,0,0,1-.084.358Zm-12.268-6.061a.182.182,0,0,1-.083-.019l-6.133-3.03a.189.189,0,1,1,.167-.338l6.133,3.03a.188.188,0,0,1-.083.358Z" transform="translate(-678.483 -1173.963)" fill="rgba(47,85,150,0.4)"/>
              <path id="Path_448" data-name="Path 448" d="M666.531,1188.653a.188.188,0,0,1-.083-.019l-3.242-1.6,2.045-2.983a.189.189,0,1,1,.311.214l-1.8,2.623,2.852,1.409a.188.188,0,0,1-.084.358Z" transform="translate(-663.205 -1161.869)" fill="rgba(47,85,150,0.4)"/>
              <path id="Path_449" data-name="Path 449" d="M680.4,1156.716a.189.189,0,0,1-.156-.3l4.411-6.432a.189.189,0,0,1,.311.213l-4.411,6.432A.187.187,0,0,1,680.4,1156.716Z" transform="translate(-673.79 -1140.672)" fill="rgba(47,85,150,0.4)"/>
              <path id="Path_450" data-name="Path 450" d="M703.763,1128.636a.188.188,0,0,1-.156-.3l1.923-2.8a.189.189,0,1,1,.311.213l-1.923,2.8A.185.185,0,0,1,703.763,1128.636Z" transform="translate(-688.329 -1125.455)" fill="rgba(47,85,150,0.4)"/>
            </g>
            <g id="Group_200" data-name="Group 200" transform="translate(36.854 211.716)">
              <path id="Path_451" data-name="Path 451" d="M931.966,1324.333a.191.191,0,0,1-.084-.02l-3.047-1.506a.188.188,0,0,1-.086-.252.191.191,0,0,1,.253-.087l3.047,1.506a.189.189,0,0,1-.084.358Z" transform="translate(-865.306 -1291.116)" fill="rgba(47,85,150,0.4)"/>
              <path id="Path_452" data-name="Path 452" d="M833.771,1275.822a.186.186,0,0,1-.084-.02l-6.708-3.315a.189.189,0,1,1,.167-.338l6.708,3.315a.189.189,0,0,1-.083.358Zm-13.417-6.629a.189.189,0,0,1-.084-.019l-6.708-3.315a.189.189,0,1,1,.167-.338l6.708,3.314a.189.189,0,0,1-.084.358Zm-13.417-6.628a.2.2,0,0,1-.084-.019l-6.708-3.315a.189.189,0,0,1,.167-.339l6.709,3.315a.189.189,0,0,1-.084.358Zm-13.417-6.629a.187.187,0,0,1-.083-.019l-6.709-3.314a.189.189,0,0,1,.168-.339l6.708,3.314a.189.189,0,0,1-.084.358Z" transform="translate(-776.866 -1247.424)" fill="rgba(47,85,150,0.4)"/>
              <path id="Path_453" data-name="Path 453" d="M764.025,1241.364a.184.184,0,0,1-.083-.019l-3.047-1.505a.189.189,0,0,1,.167-.339l3.047,1.506a.188.188,0,0,1-.084.357Z" transform="translate(-760.789 -1239.481)" fill="rgba(47,85,150,0.4)"/>
            </g>
            <path id="Path_454" data-name="Path 454" d="M966.413,1334.625l-30.664-15.149,1.171-2.37,29.492,14.571,37.715-18.633,1.171,2.37Z" transform="translate(-834.408 -1073.546)" fill="rgba(47,85,150,0.4)"/>
            <rect id="Rectangle_1636" data-name="Rectangle 1636" width="53.99" height="2.644" transform="translate(187.807 229.846) rotate(-26.29)" fill="rgba(47,85,150,0.4)"/>
            <path id="Path_455" data-name="Path 455" d="M1288.179,1118.228a.189.189,0,0,1-.083-.358l6.094-3.011a.189.189,0,0,1,.168.338l-6.1,3.011A.183.183,0,0,1,1288.179,1118.228Zm12.19-6.022a.189.189,0,0,1-.084-.359l6.095-3.011a.189.189,0,1,1,.167.338l-6.094,3.012A.2.2,0,0,1,1300.37,1112.206Zm10.209-6.539a.187.187,0,0,1-.155-.082l-3.846-5.606a.189.189,0,1,1,.311-.213l3.845,5.6a.189.189,0,0,1-.048.263A.187.187,0,0,1,1310.579,1105.668Zm-7.69-11.212a.189.189,0,0,1-.156-.083l-3.845-5.606a.189.189,0,0,1,.312-.214l3.845,5.607a.188.188,0,0,1-.049.262A.186.186,0,0,1,1302.889,1094.456Zm-7.689-11.213a.189.189,0,0,1-.156-.081l-3.846-5.606a.189.189,0,0,1,.312-.213l3.845,5.606a.188.188,0,0,1-.048.262A.191.191,0,0,1,1295.2,1083.243Zm-7.691-11.211a.19.19,0,0,1-.156-.082l-3.845-5.607a.189.189,0,1,1,.312-.214l3.845,5.606a.188.188,0,0,1-.049.262A.184.184,0,0,1,1287.509,1072.032Zm-7.69-11.213a.192.192,0,0,1-.156-.082l-3.845-5.605a.189.189,0,1,1,.312-.214l3.845,5.605a.189.189,0,0,1-.156.3Z" transform="translate(-1047.473 -912.03)" fill="rgba(47,85,150,0.4)"/>
            <path id="Path_456" data-name="Path 456" d="M1168.127,897.975a.19.19,0,0,1-.156-.082l-3.844-5.606a.189.189,0,1,1,.312-.214l3.845,5.606a.189.189,0,0,1-.156.3Zm-7.69-11.212a.187.187,0,0,1-.156-.082l-3.846-5.606a.189.189,0,0,1,.311-.214l3.846,5.606a.189.189,0,0,1-.049.262A.192.192,0,0,1,1160.437,886.763Zm-7.691-11.212a.189.189,0,0,1-.156-.082l-3.845-5.606a.189.189,0,0,1,.311-.213l3.845,5.606a.189.189,0,0,1-.156.3Zm-7.689-11.212a.188.188,0,0,1-.156-.082l-3.845-5.606a.189.189,0,1,1,.311-.214l3.845,5.607a.188.188,0,0,1-.05.262A.185.185,0,0,1,1145.057,864.339Zm-7.691-11.212a.189.189,0,0,1-.156-.082l-3.845-5.606a.189.189,0,0,1,.312-.214l3.845,5.606a.189.189,0,0,1-.156.3Zm-7.689-11.212a.188.188,0,0,1-.156-.082l-3.845-5.605a.189.189,0,0,1,.312-.214l3.844,5.606a.188.188,0,0,1-.155.3Zm-7.69-11.212a.188.188,0,0,1-.156-.082l-3.844-5.605a.189.189,0,0,1,.311-.214l3.846,5.606a.189.189,0,0,1-.156.3Zm-7.69-11.212a.187.187,0,0,1-.156-.083L1110.3,813.8a.189.189,0,0,1,.311-.214l3.845,5.606a.189.189,0,0,1-.156.3Zm-7.69-11.212a.188.188,0,0,1-.156-.083l-3.845-5.605a.189.189,0,0,1,.312-.214l3.845,5.606a.189.189,0,0,1-.049.263A.192.192,0,0,1,1106.607,808.28Z" transform="translate(-939.676 -753.596)" fill="rgba(47,85,150,0.4)"/>
            <path id="Path_457" data-name="Path 457" d="M922.949,725.484l-2.18-1.5,36.321-52.955,33.618,49.014-2.18,1.495L957.09,675.708Z" transform="translate(-825 -671.034)" fill="rgba(47,85,150,0.4)"/>
            <rect id="Rectangle_1637" data-name="Rectangle 1637" width="62.747" height="2.644" transform="translate(39.557 135.649) rotate(-55.557)" fill="rgba(47,85,150,0.4)"/>
            <rect id="Rectangle_1638" data-name="Rectangle 1638" width="41.488" height="2.644" transform="translate(16.268 169.282) rotate(-55.557)" fill="rgba(47,85,150,0.4)"/>
          </g>
          <path id="Path_458" data-name="Path 458" d="M834.808,966.311l-.413-.206L726.72,912.162l108.088-159.8L942.9,912.162ZM729.471,911.434,834.808,964.2l105.337-52.771L834.808,755.7Z" transform="translate(-665.078 -681.543)" fill="rgba(47,85,150,0.4)" opacity="0.1"/>
          <path id="Path_459" data-name="Path 459" d="M867.9,990.757,779.9,946.529l.363-.539L867.9,816.007l88.006,130.522-.576.289Zm-86.361-44.665,86.361,43.4,86.36-43.4L867.9,818.01Z" transform="translate(-698.172 -720.007)" fill="rgba(47,85,150,0.4)" opacity="0.08"/>
          <path id="Path_460" data-name="Path 460" d="M905.271,1017.24,837.5,983.76l67.767-98.8,67.767,98.8Zm-66.094-33.917,66.094,32.653,66.094-32.653L905.271,886.96Z" transform="translate(-735.541 -762.918)" fill="rgba(47,85,150,0.4)" opacity="0.06"/>
          <path id="Path_461" data-name="Path 461" d="M947.557,1048.475l-42.106-20.8,42.106-61.39,42.106,61.39Zm-40.433-21.239,40.433,19.975,40.433-19.975-40.433-58.95Z" transform="translate(-777.827 -813.531)" fill="rgba(47,85,150,0.4)" opacity="0.04"/>
          <path id="Path_462" data-name="Path 462" d="M984.327,1075.638l-19.793-9.777L984.327,1037l19.792,28.857Zm-19.235-9.924,19.235,9.5,19.235-9.5-19.235-28.044Z" transform="translate(-814.597 -857.543)" fill="rgba(47,85,150,0.4)" opacity="0.03"/>
        </g>
      </g>
    </g>
    <g id="Group_214" data-name="Group 214" transform="translate(9700.761 -2158.674)">
      <g id="Group_205" data-name="Group 205" transform="translate(164.568 101.648)">
        <path id="Path_463" data-name="Path 463" d="M1284.655,1043.5h-33.882a4.842,4.842,0,0,1-3.421-1.417l-19.361-19.361a4.838,4.838,0,0,1,0-6.844l19.361-19.361a4.839,4.839,0,0,1,3.421-1.419h33.882a4.84,4.84,0,0,1,3.423,8.262l-15.939,15.939,15.939,15.939a4.84,4.84,0,0,1-3.423,8.262Zm-31.877-9.68h20.193l-11.1-11.1a4.839,4.839,0,0,1,0-6.844l11.1-11.1h-20.193l-14.521,14.52Z" transform="translate(-1226.573 -995.096)" fill="#2a59a7"/>
      </g>
      <g id="Group_206" data-name="Group 206" transform="translate(77.444 53.246)">
        <path id="Path_464" data-name="Path 464" d="M1000.717,944.376a4.84,4.84,0,0,1-3.422-8.262l67.763-67.764a4.84,4.84,0,0,1,6.845,6.844l-67.764,67.763A4.824,4.824,0,0,1,1000.717,944.376Z" transform="translate(-995.877 -866.933)" fill="#2a59a7"/>
      </g>
      <g id="Group_207" data-name="Group 207" transform="translate(77.444 121.009)">
        <path id="Path_465" data-name="Path 465" d="M1087.842,1056.042h-87.125a4.84,4.84,0,1,1,0-9.68h87.125a4.84,4.84,0,0,1,0,9.68Z" transform="translate(-995.877 -1046.362)" fill="#2a59a7"/>
      </g>
      <g id="Group_208" data-name="Group 208" transform="translate(48.402 91.968)">
        <path id="Path_466" data-name="Path 466" d="M952.861,1037.226a33.882,33.882,0,1,1,11.271-65.842l-3.224,9.128a24.2,24.2,0,1,0,12.918,34.929l8.381,4.849A34.013,34.013,0,0,1,952.861,1037.226Z" transform="translate(-918.979 -969.463)" fill="#2a59a7"/>
      </g>
      <g id="Group_209" data-name="Group 209" transform="translate(145.207 0)">
        <path id="Path_467" data-name="Path 467" d="M1204.349,788.869h-24.2a4.84,4.84,0,0,1-4.84-4.84v-24.2a4.841,4.841,0,0,1,1.418-3.422l29.042-29.041a4.839,4.839,0,0,1,8.262,3.422v19.361h19.361a4.84,4.84,0,0,1,3.423,8.262l-29.041,29.041A4.843,4.843,0,0,1,1204.349,788.869Zm-19.362-9.68h17.357l19.361-19.361h-12.517a4.84,4.84,0,0,1-4.839-4.841V742.47l-19.362,19.361Z" transform="translate(-1175.307 -725.942)" fill="#2a59a7"/>
      </g>
      <g id="Group_210" data-name="Group 210" transform="translate(24.201 67.766)">
        <path id="Path_468" data-name="Path 468" d="M912.979,1021.546A58.083,58.083,0,1,1,944.7,914.8L939.4,922.9a48.4,48.4,0,1,0,21.181,49.367l9.52,1.749A58.038,58.038,0,0,1,912.979,1021.546Z" transform="translate(-854.897 -905.381)" fill="#2a59a7"/>
      </g>
      <g id="Group_211" data-name="Group 211" transform="translate(122.859 94.161)">
        <path id="Path_469" data-name="Path 469" d="M1123.16,998.151a47.908,47.908,0,0,0-7.029-17.6l8.111-5.285a57.56,57.56,0,0,1,8.438,21.131Z" transform="translate(-1116.131 -975.271)" fill="#2a59a7"/>
      </g>
      <g id="Group_212" data-name="Group 212" transform="translate(0 43.565)">
        <path id="Path_470" data-name="Path 470" d="M873.1,1005.866A82.284,82.284,0,1,1,924.52,859.341l-6.055,7.554A71.815,71.815,0,0,0,873.1,850.979a72.6,72.6,0,1,0,72.042,81.688l9.6,1.2A82.353,82.353,0,0,1,873.1,1005.866Z" transform="translate(-790.815 -841.299)" fill="#2a59a7"/>
      </g>
      <g id="Group_213" data-name="Group 213" transform="translate(138.973 74.429)">
        <path id="Path_471" data-name="Path 471" d="M1174.151,965.358a72.313,72.313,0,0,0-15.353-36.28l7.554-6.055a81.976,81.976,0,0,1,17.4,41.14Z" transform="translate(-1158.798 -923.023)" fill="#2a59a7"/>
      </g>
    </g>
  </g>
</svg>
