<?xml version="1.0" encoding="utf-8"?>
<!-- Generator: Adobe Illustrator 22.0.0, SVG Export Plug-In . SVG Version: 6.00 Build 0)  -->
<svg version="1.1" id="Layer_1" xmlns="http://www.w3.org/2000/svg" xmlns:xlink="http://www.w3.org/1999/xlink" x="0px" y="0px"
	 viewBox="0 0 50 50" style="enable-background:new 0 0 50 50;" xml:space="preserve">
<style type="text/css">
	.st0{fill:#F05A33;}
</style>
<g>
	<path class="st0" d="M46.1,8.3h-42C3.7,8.3,3.3,8.6,3.3,9v33c0,0.4,0.3,0.8,0.8,0.8h42c0.4,0,0.8-0.3,0.8-0.8V9
		C46.8,8.6,46.5,8.3,46.1,8.3L46.1,8.3z M10.8,41.3h-6v-6.8h6V41.3z M10.8,33h-6v-6.8h6V33z M10.8,24.8h-6V18h6V24.8z M10.8,16.5h-6
		V9.8h6V16.5z M30.7,26.1l-8.3,5.3c-0.1,0.1-0.3,0.1-0.4,0.1c-0.1,0-0.3,0-0.4-0.1c-0.2-0.1-0.4-0.4-0.4-0.7V20.3
		c0-0.3,0.1-0.5,0.4-0.7c0.2-0.1,0.5-0.1,0.8,0l8.3,5.3c0.2,0.1,0.3,0.4,0.3,0.6S31,26,30.7,26.1L30.7,26.1z M45.3,41.3h-6v-6.8h6
		V41.3z M45.3,33h-6v-6.8h6V33z M45.3,24.8h-6V18h6V24.8z M45.3,16.5h-6V9.8h6V16.5z M45.3,16.5"/>
</g>
</svg>
