<?xml version="1.0" encoding="utf-8"?>
<!-- Generator: Adobe Illustrator 22.0.0, SVG Export Plug-In . SVG Version: 6.00 Build 0)  -->
<svg version="1.1" id="Layer_1" xmlns="http://www.w3.org/2000/svg" xmlns:xlink="http://www.w3.org/1999/xlink" x="0px" y="0px"
	 viewBox="0 0 50 50" style="enable-background:new 0 0 50 50;" xml:space="preserve">
<style type="text/css">
	.st0{fill:#F93082;}
	.st1{clip-path:url(#SVGID_2_);fill:#F93082;}
</style>
<g>
	<path class="st0" d="M125,43c-0.2,0.3-0.2,0.7,0.1,0.9l0.5,0.4h-4.6c-0.9,0-0.9,1.3,0,1.3h4.6l-0.5,0.4c-0.3,0.2-0.3,0.6-0.1,0.9
		c0.2,0.3,0.6,0.3,0.9,0.1l2-1.5c0.3-0.3,0.3-0.8,0-1l-2-1.5C125.6,42.7,125.2,42.7,125,43L125,43z M125,43"/>
	<path class="st0" d="M120.9,39.8c0.2,0,0.3-0.1,0.5-0.2l3.3-3.3l-0.1,0.6c-0.1,0.4,0.2,0.7,0.6,0.7c0.4,0,0.7-0.2,0.7-0.6l0.3-2.5
		c0.1-0.4-0.3-0.8-0.7-0.7l-2.5,0.3c-0.4,0-0.6,0.4-0.6,0.7c0,0.4,0.4,0.6,0.7,0.6l0.6-0.1l-3.3,3.3
		C120.1,39.1,120.4,39.8,120.9,39.8L120.9,39.8z M120.9,39.8"/>
	<path class="st0" d="M123.7,54.5l-0.6-0.1c-0.9-0.1-1,1.2-0.2,1.3l2.5,0.3c0,0,0.1,0,0.1,0c0.4,0,0.7-0.3,0.6-0.7l-0.3-2.5
		c0-0.4-0.4-0.6-0.7-0.6c-0.4,0-0.6,0.4-0.6,0.7l0.1,0.6l-3.3-3.3c-0.6-0.6-1.5,0.3-0.9,0.9L123.7,54.5z M123.7,54.5"/>
	<path class="st0" d="M103.5,57.3V64c0,2.8,2.3,5,5,5H126c2.8,0,5-2.3,5-5V25.8c0-2.8-2.3-5-5-5h-17.5c-2.8,0-5,2.3-5,5v6.8
		c-5.7,1.4-9.7,6.5-9.7,12.3S97.8,55.9,103.5,57.3L103.5,57.3z M107.1,56v-6.3c1.5,0.1,3,0.5,4.4,1.2
		C110.6,53.1,109.1,54.9,107.1,56L107.1,56z M107.1,48.4v-2.8h5.5c0,1.4-0.3,2.8-0.7,4.1C110.5,48.9,108.8,48.5,107.1,48.4
		L107.1,48.4z M107.1,44.3v-2.8c1.7-0.1,3.3-0.5,4.9-1.2c0.4,1.3,0.6,2.7,0.7,4.1H107.1z M107.1,40.1v-6.3c2,1.1,3.5,2.9,4.4,5.1
		C110.2,39.6,108.7,40,107.1,40.1L107.1,40.1z M105.8,33.8v6.3c-1.5-0.1-3-0.5-4.4-1.2C102.4,36.8,103.9,35,105.8,33.8L105.8,33.8z
		 M105.8,41.4v2.8h-5.5c0-1.4,0.3-2.7,0.7-4.1C102.5,40.9,104.1,41.4,105.8,41.4L105.8,41.4z M105.8,45.6v2.8
		c-1.7,0.1-3.3,0.5-4.9,1.2c-0.4-1.3-0.6-2.7-0.7-4.1H105.8z M105.8,49.7V56c-2-1.1-3.5-2.9-4.4-5.1
		C102.8,50.2,104.3,49.8,105.8,49.7L105.8,49.7z M103.4,55.9c-1.8-0.5-3.5-1.5-4.9-2.9c0.5-0.5,1.1-1,1.8-1.4
		C101,53.2,102,54.7,103.4,55.9L103.4,55.9z M112.7,51.6c0.6,0.4,1.2,0.9,1.8,1.4c-1.4,1.3-3,2.3-4.9,2.8
		C110.9,54.7,112,53.2,112.7,51.6L112.7,51.6z M115.3,52c-0.7-0.7-1.4-1.2-2.2-1.7c0.5-1.5,0.8-3.1,0.8-4.7h3.8
		C117.7,47.9,116.8,50.2,115.3,52L115.3,52z M114,44.3c0-1.6-0.3-3.2-0.8-4.7c0.8-0.5,1.5-1.1,2.2-1.7c1.5,1.8,2.3,4.1,2.5,6.4H114z
		 M112.7,38.3c-0.7-1.6-1.8-3.1-3.1-4.3c1.8,0.5,3.5,1.5,4.9,2.8C113.9,37.4,113.3,37.9,112.7,38.3L112.7,38.3z M100.3,38.3
		c-0.6-0.4-1.2-0.9-1.8-1.4c1.4-1.4,3-2.3,4.9-2.9C102,35.2,101,36.7,100.3,38.3L100.3,38.3z M99.8,39.6c-0.5,1.5-0.8,3.1-0.8,4.7
		h-3.8c0.1-2.3,1-4.6,2.5-6.4C98.3,38.5,99,39.1,99.8,39.6L99.8,39.6z M99,45.6c0,1.6,0.3,3.2,0.8,4.7c-0.8,0.5-1.5,1.1-2.2,1.7
		c-1.5-1.8-2.3-4.1-2.5-6.4H99z M126,67.8h-17.5c-2,0-3.7-1.7-3.7-3.7v-2.8h24.9V64C129.7,66.1,128.1,67.7,126,67.8L126,67.8z
		 M104.9,28.7h17.8c0.9,0,0.9-1.3,0-1.3h-17.8v-1.5c0-2,1.7-3.7,3.7-3.7H126c2,0,3.7,1.7,3.7,3.7v1.5h-1.5c-0.9,0-0.9,1.3,0,1.3h1.5
		v31.2h-24.9v-2.4c3.6,0.5,7.3-0.6,10-3c2.7-2.4,4.3-5.9,4.3-9.5c0-3.6-1.6-7.1-4.3-9.5c-2.7-2.4-6.4-3.5-10-3V28.7z M104.9,28.7"/>
	<path class="st0" d="M124.8,28.7h1.2c0.9,0,0.9-1.3,0-1.3h-1.2C123.9,27.4,123.9,28.7,124.8,28.7L124.8,28.7z M124.8,28.7"/>
	<g>
		<defs>
			<rect id="SVGID_1_" x="84.8" y="20.8" width="46.3" height="48.3"/>
		</defs>
		<clipPath id="SVGID_2_">
			<use xlink:href="#SVGID_1_"  style="overflow:visible;"/>
		</clipPath>
		<path class="st1" d="M117.3,62.2c-0.9,0-1.8,0.6-2.1,1.4c-0.4,0.9-0.2,1.8,0.5,2.5c0.7,0.7,1.6,0.9,2.5,0.5
			c0.9-0.4,1.4-1.2,1.4-2.1C119.6,63.2,118.6,62.2,117.3,62.2L117.3,62.2z M117.3,65.5c-0.4,0-0.8-0.2-0.9-0.6
			c-0.2-0.4-0.1-0.8,0.2-1.1c0.3-0.3,0.7-0.4,1.1-0.2c0.4,0.2,0.6,0.5,0.6,0.9C118.3,65,117.8,65.5,117.3,65.5L117.3,65.5z
			 M117.3,65.5"/>
		<path class="st1" d="M85.2,45.5l2,1.5c0.3,0.2,0.7,0.2,0.9-0.1c0.2-0.3,0.2-0.7-0.1-0.9l-0.5-0.4h4.6c0.9,0,0.9-1.3,0-1.3h-4.6
			l0.5-0.4c0.3-0.2,0.3-0.6,0.1-0.9c-0.2-0.3-0.6-0.3-0.9-0.1l-2,1.5C84.8,44.7,84.8,45.2,85.2,45.5L85.2,45.5z M85.2,45.5"/>
	</g>
	<path class="st0" d="M87.2,37.1c0,0.3,0.3,0.6,0.6,0.6c0,0,0.1,0,0.1,0c0.4,0,0.6-0.4,0.6-0.7l-0.1-0.6l3.3,3.3
		c0.6,0.6,1.5-0.3,0.9-0.9l-3.3-3.3l0.6,0.1c0.9,0.1,1-1.2,0.2-1.3l-2.5-0.3c-0.4-0.1-0.8,0.3-0.7,0.7L87.2,37.1z M87.2,37.1"/>
	<path class="st0" d="M92.6,50.3c-0.3-0.3-0.7-0.3-0.9,0l-3.3,3.3l0.1-0.6c0.1-0.9-1.2-1-1.3-0.2l-0.3,2.5c-0.1,0.4,0.3,0.7,0.6,0.7
		c0,0,0.1,0,0.1,0l2.5-0.3c0.9-0.1,0.7-1.4-0.2-1.3l-0.6,0.1l3.3-3.3C92.9,50.9,92.9,50.5,92.6,50.3L92.6,50.3z M92.6,50.3"/>
</g>
<rect x="0.7" y="46.8" class="st0" width="45.9" height="1.5"/>
<path class="st0" d="M45,9l-3.1-6.1c-0.2-0.4-0.6-0.5-1-0.3h0l-6.1,3.1c-0.4,0.2-0.5,0.6-0.3,1c0.2,0.4,0.6,0.5,1,0.3l4.4-2.2
	l-1.2,3.5c-5.3,15.1-19,25.8-35,27.1l0.1,1.5c16.6-1.4,30.8-12.5,36.3-28.2l1.2-3.5l2.3,4.5c0.2,0.4,0.6,0.5,1,0.3
	C45,9.8,45.2,9.3,45,9L45,9z M45,9"/>
<path class="st0" d="M9.9,39.1H4.5c-0.4,0-0.8,0.3-0.8,0.8v4.6c0,0.4,0.3,0.8,0.8,0.8h5.4c0.4,0,0.8-0.3,0.8-0.8v-4.6
	C10.6,39.5,10.3,39.1,9.9,39.1L9.9,39.1z M9.1,43.7H5.3v-3.1h3.8V43.7z M9.1,43.7"/>
<path class="st0" d="M18.3,36.8h-5.4c-0.4,0-0.8,0.3-0.8,0.8v6.9c0,0.4,0.3,0.8,0.8,0.8h5.4c0.4,0,0.8-0.3,0.8-0.8v-6.9
	C19,37.2,18.7,36.8,18.3,36.8L18.3,36.8z M17.5,43.7h-3.8v-5.4h3.8V43.7z M17.5,43.7"/>
<path class="st0" d="M26.7,33h-5.4c-0.4,0-0.8,0.3-0.8,0.8v10.7c0,0.4,0.3,0.8,0.8,0.8h5.4c0.4,0,0.8-0.3,0.8-0.8V33.8
	C27.5,33.4,27.1,33,26.7,33L26.7,33z M25.9,43.7h-3.8v-9.2h3.8V43.7z M25.9,43.7"/>
<path class="st0" d="M35.1,27.7h-5.4c-0.4,0-0.8,0.3-0.8,0.8v16.1c0,0.4,0.3,0.8,0.8,0.8h5.4c0.4,0,0.8-0.3,0.8-0.8V28.4
	C35.9,28,35.5,27.7,35.1,27.7L35.1,27.7z M34.3,43.7h-3.8V29.2h3.8V43.7z M34.3,43.7"/>
<path class="st0" d="M43.5,16.9h-5.4c-0.4,0-0.8,0.3-0.8,0.8v26.8c0,0.4,0.3,0.8,0.8,0.8h5.4c0.4,0,0.8-0.3,0.8-0.8V17.7
	C44.3,17.3,44,16.9,43.5,16.9L43.5,16.9z M42.8,43.7h-3.8V18.5h3.8V43.7z M42.8,43.7"/>
<path class="st0" d="M4.9,23.7c0.2,0.1,0.4,0.2,0.6,0.2c0.2,0,0.5-0.1,0.7-0.2l13.4-8.5c0.3-0.2,0.6-0.6,0.6-1c0-0.4-0.2-0.8-0.6-1
	L6.1,4.6c-0.4-0.2-0.8-0.3-1.2,0C4.5,4.8,4.3,5.2,4.3,5.6v17C4.3,23.1,4.5,23.5,4.9,23.7L4.9,23.7z M6.7,7.8l9.9,6.3l-9.9,6.3V7.8z
	 M6.7,7.8"/>
</svg>
