<?xml version="1.0" encoding="utf-8"?>
<!-- Generator: Adobe Illustrator 22.0.0, SVG Export Plug-In . SVG Version: 6.00 Build 0)  -->
<svg version="1.1" id="Layer_1" xmlns="http://www.w3.org/2000/svg" xmlns:xlink="http://www.w3.org/1999/xlink" x="0px" y="0px"
	 viewBox="0 0 50 50" style="enable-background:new 0 0 50 50;" xml:space="preserve">
<style type="text/css">
	.st0{fill:#FF572C;}
</style>
<path class="st0" d="M20.8,23.8c0.1,0.1,0.3,0.1,0.4,0.1c0.2,0,0.3,0,0.4-0.1l9.2-5.9c0.2-0.2,0.4-0.4,0.4-0.7
	c0-0.3-0.1-0.6-0.4-0.7l-9.2-5.9c-0.3-0.2-0.6-0.2-0.9,0c-0.3,0.1-0.4,0.4-0.4,0.7V23C20.4,23.3,20.6,23.6,20.8,23.8L20.8,23.8z
	 M22.1,12.9l6.8,4.3l-6.8,4.3V12.9z M22.1,12.9"/>
<path class="st0" d="M2.8,2.1v46H48v-46H2.8z M46.3,3.8v27.6H4.5V3.8H46.3z M4.5,46.5V33.1h41.8v13.4H4.5z M4.5,46.5"/>
<path class="st0" d="M42.1,38.9H22.1v-1.7c0-0.5-0.4-0.8-0.8-0.8c-0.5,0-0.8,0.4-0.8,0.8v1.7H17c-0.5,0-0.8,0.4-0.8,0.8
	c0,0.5,0.4,0.8,0.8,0.8h3.3v1.7c0,0.5,0.4,0.8,0.8,0.8c0.5,0,0.8-0.4,0.8-0.8v-1.7h20.1c0.5,0,0.8-0.4,0.8-0.8
	C43,39.3,42.6,38.9,42.1,38.9L42.1,38.9z M42.1,38.9"/>
<path class="st0" d="M8.7,36.4c-0.5,0-0.8,0.4-0.8,0.8v5c0,0.5,0.4,0.8,0.8,0.8c0.5,0,0.8-0.4,0.8-0.8v-5
	C9.5,36.8,9.1,36.4,8.7,36.4L8.7,36.4z M8.7,36.4"/>
<path class="st0" d="M12,36.4c-0.5,0-0.8,0.4-0.8,0.8v5c0,0.5,0.4,0.8,0.8,0.8c0.5,0,0.8-0.4,0.8-0.8v-5
	C12.9,36.8,12.5,36.4,12,36.4L12,36.4z M12,36.4"/>
</svg>
