<svg xmlns="http://www.w3.org/2000/svg" width="340.505" height="332.335" viewBox="0 0 340.505 332.335">
  <g id="Group_924" data-name="Group 924" transform="translate(-11704 1960)">
    <g id="Group_904" data-name="Group 904" transform="translate(10314.406 -3375.321)">
      <g id="Group_264" data-name="Group 264" transform="translate(1467 1562.258)">
        <path id="Path_556" data-name="Path 556" d="M1263.006,1381.6,1251,1353.586l-9.634,16.052-14.432-4.812h-31.368v-8h32.664l9.579,3.193,14.379-23.969,12.006,28.013,11.041-18.4,11,14.66,3.045-9.138,9.553,4.778,4-4,9.739,4.869h3.056v8h-4.947l-6.268-3.134-4,4-6.457-3.229-4.958,14.874-13.015-17.354Z" transform="translate(-1195.567 -1336.047)" fill="#ff572c"/>
      </g>
      <g id="Group_265" data-name="Group 265" transform="translate(1499.602 1535.01)">
        <path id="Path_557" data-name="Path 557" d="M1286.753,1406.435a52.451,52.451,0,0,1-50.9-39l7.747-2.016a44.44,44.44,0,0,0,43.155,33.009c24.571,0,44.557-19.749,44.557-44.022s-19.986-44.022-44.557-44.022a44.44,44.44,0,0,0-43.159,33.023l-7.745-2.015a52.445,52.445,0,0,1,50.9-39.013c28.982,0,52.56,23.34,52.56,52.027S1315.734,1406.435,1286.753,1406.435Z" transform="translate(-1235.849 -1302.381)" fill="#ff572c"/>
      </g>
      <g id="Group_266" data-name="Group 266" transform="translate(1479.068 1515)">
        <path id="Path_558" data-name="Path 558" d="M1281.919,1421.729a72.3,72.3,0,0,1-71.441-59.336l7.879-1.415a64.3,64.3,0,0,0,63.562,52.748c35.6,0,64.563-28.725,64.563-64.031s-28.963-64.032-64.563-64.032a64.3,64.3,0,0,0-63.562,52.749l-7.879-1.415a72.3,72.3,0,0,1,71.441-59.337c40.012,0,72.567,32.316,72.567,72.035S1321.932,1421.729,1281.919,1421.729Z" transform="translate(-1210.478 -1277.659)" fill="#ff572c"/>
      </g>
      <g id="Group_267" data-name="Group 267" transform="translate(1627.079 1583.034)">
        <rect id="Rectangle_1658" data-name="Rectangle 1658" width="32.016" height="8.004" fill="#ff572c"/>
      </g>
      <g id="Group_268" data-name="Group 268" transform="translate(1588.232 1624.226)">
        <path id="Path_559" data-name="Path 559" d="M1400.208,1484.153a11.967,11.967,0,0,1-8.49-3.509l-46.365-46.367,5.659-5.66,46.367,46.366a4,4,0,0,0,5.658,0l4.69-4.69a4.008,4.008,0,0,0,0-5.659l-46.367-46.367,5.659-5.659,46.368,46.366a12.017,12.017,0,0,1,0,16.977l-4.69,4.691A11.962,11.962,0,0,1,1400.208,1484.153Z" transform="translate(-1345.353 -1412.61)" fill="#ff572c"/>
      </g>
    </g>
    <g id="Group_917" data-name="Group 917" transform="translate(11845 -1878)">
      <g id="Group_220" data-name="Group 220" transform="translate(-141 -82)">
        <g id="Group_219" data-name="Group 219">
          <rect id="Rectangle_1639" data-name="Rectangle 1639" width="81.758" height="3.755" transform="matrix(0.566, -0.825, 0.825, 0.566, 39.766, 190.246)" fill="rgba(249,195,61,0.2)"/>
          <path id="Path_472" data-name="Path 472" d="M582.176,1334.75l-64.657-31.943,19.093-27.838,3.1,2.124-16.643,24.266,60.774,30.026Z" transform="translate(-517.519 -1054.582)" fill="rgba(249,195,61,0.2)"/>
          <path id="Path_473" data-name="Path 473" d="M913.258,1539.022l-34.691-17.139,1.663-3.367,33.029,16.317,31.57-15.6,1.663,3.366Z" transform="translate(-743.005 -1206.687)" fill="rgba(249,195,61,0.2)"/>
          <path id="Path_474" data-name="Path 474" d="M1326.238,1275.548l-1.663-3.367,27.907-13.787-34.36-50.095,3.1-2.124,36.81,53.667Z" transform="translate(-1017.523 -1011.619)" fill="rgba(249,195,61,0.2)"/>
          <path id="Path_475" data-name="Path 475" d="M872.684,745.618l-3.1-2.124L907.65,688l37.311,54.4-3.1,2.124L907.65,694.638Z" transform="translate(-737.398 -688)" fill="rgba(249,195,61,0.2)"/>
          <rect id="Rectangle_1640" data-name="Rectangle 1640" width="3.755" height="88.993" transform="matrix(0.443, -0.897, 0.897, 0.443, 61.167, 264.623)" fill="rgba(249,195,61,0.2)"/>
          <path id="Path_476" data-name="Path 476" d="M1280.286,1269.6l-1.663-3.366,29.3-14.474-31.846-46.431,3.1-2.124,34.3,50Z" transform="translate(-991.262 -1009.766)" fill="rgba(249,195,61,0.2)"/>
          <rect id="Rectangle_1641" data-name="Rectangle 1641" width="3.755" height="140.062" transform="matrix(0.825, -0.566, 0.566, 0.825, 205.588, 80.063)" fill="rgba(249,195,61,0.2)"/>
          <g id="Group_218" data-name="Group 218" transform="translate(37.436 42.816)">
            <g id="Group_216" data-name="Group 216" transform="translate(0 170.62)">
              <path id="Path_477" data-name="Path 477" d="M709.957,1368.367a.187.187,0,0,1-.083-.019l-3.029-1.5a.188.188,0,1,1,.166-.336l3.03,1.5a.188.188,0,0,1-.083.356Z" transform="translate(-673.129 -1325.179)" fill="rgba(249,195,61,0.2)"/>
              <path id="Path_478" data-name="Path 478" d="M660.255,1343.812a.179.179,0,0,1-.083-.02l-6.1-3.012a.188.188,0,1,1,.166-.336l6.1,3.012a.188.188,0,0,1-.083.356Zm-12.2-6.025a.187.187,0,0,1-.083-.02l-6.1-3.012a.188.188,0,0,1,.166-.337l6.1,3.013a.188.188,0,0,1-.084.356Z" transform="translate(-632.556 -1305.134)" fill="rgba(249,195,61,0.2)"/>
              <path id="Path_479" data-name="Path 479" d="M620.531,1319.625a.191.191,0,0,1-.083-.019l-3.224-1.593,2.034-2.965a.188.188,0,0,1,.31.213l-1.789,2.608,2.836,1.4a.188.188,0,0,1-.083.356Z" transform="translate(-617.224 -1292.998)" fill="rgba(249,195,61,0.2)"/>
              <path id="Path_480" data-name="Path 480" d="M634.421,1287.676a.185.185,0,0,1-.106-.033.187.187,0,0,1-.048-.261l4.385-6.394a.188.188,0,1,1,.31.212l-4.385,6.394A.187.187,0,0,1,634.421,1287.676Z" transform="translate(-627.847 -1271.726)" fill="rgba(249,195,61,0.2)"/>
              <path id="Path_481" data-name="Path 481" d="M657.781,1259.617a.187.187,0,0,1-.154-.294l1.911-2.787a.188.188,0,1,1,.31.212l-1.911,2.787A.187.187,0,0,1,657.781,1259.617Z" transform="translate(-642.436 -1256.455)" fill="rgba(249,195,61,0.2)"/>
            </g>
            <g id="Group_217" data-name="Group 217" transform="translate(36.64 213.432)">
              <path id="Path_482" data-name="Path 482" d="M885.966,1455.323a.186.186,0,0,1-.083-.02l-3.03-1.5a.188.188,0,0,1,.166-.337l3.03,1.5a.188.188,0,0,1-.083.356Z" transform="translate(-819.693 -1422.298)" fill="rgba(249,195,61,0.2)"/>
              <path id="Path_483" data-name="Path 483" d="M787.515,1406.685a.19.19,0,0,1-.083-.02l-6.669-3.3a.188.188,0,1,1,.166-.336l6.669,3.3a.188.188,0,0,1-.083.356Zm-13.339-6.591a.186.186,0,0,1-.083-.019l-6.669-3.295a.188.188,0,1,1,.166-.337l6.669,3.3a.187.187,0,0,1-.083.355Zm-13.339-6.589a.194.194,0,0,1-.083-.019l-6.669-3.3a.188.188,0,0,1,.166-.337l6.669,3.3a.188.188,0,0,1-.083.356Zm-13.339-6.59a.2.2,0,0,1-.083-.02l-6.669-3.3a.188.188,0,0,1,.166-.337l6.67,3.295a.188.188,0,0,1-.083.357Z" transform="translate(-730.941 -1378.452)" fill="rgba(249,195,61,0.2)"/>
              <path id="Path_484" data-name="Path 484" d="M718.026,1372.353a.194.194,0,0,1-.083-.02l-3.03-1.5a.188.188,0,0,1,.166-.337l3.03,1.5a.188.188,0,0,1-.083.356Z" transform="translate(-714.808 -1370.481)" fill="rgba(249,195,61,0.2)"/>
            </g>
            <path id="Path_485" data-name="Path 485" d="M920.253,1465.5l-30.485-15.061,1.164-2.357,29.321,14.486,37.5-18.524,1.164,2.356Z" transform="translate(-787.437 -1202.991)" fill="rgba(249,195,61,0.2)"/>
            <rect id="Rectangle_1642" data-name="Rectangle 1642" width="53.676" height="2.628" transform="translate(189.733 231.457) rotate(-26.29)" fill="rgba(249,195,61,0.2)"/>
            <path id="Path_486" data-name="Path 486" d="M1242.127,1248.86a.187.187,0,0,1-.084-.356l6.059-2.994a.188.188,0,1,1,.167.337l-6.06,2.994A.182.182,0,0,1,1242.127,1248.86Zm12.118-5.987a.187.187,0,0,1-.083-.356l6.059-2.993a.188.188,0,1,1,.166.336l-6.059,2.994A.186.186,0,0,1,1254.245,1242.873Zm10.15-6.5a.189.189,0,0,1-.155-.082l-3.822-5.573a.188.188,0,0,1,.31-.212l3.823,5.573a.189.189,0,0,1-.049.261A.183.183,0,0,1,1264.4,1236.372Zm-7.645-11.147a.185.185,0,0,1-.155-.082l-3.822-5.573a.188.188,0,1,1,.309-.213l3.823,5.573a.188.188,0,0,1-.155.294Zm-7.646-11.146a.187.187,0,0,1-.155-.082l-3.823-5.574a.188.188,0,0,1,.31-.212l3.822,5.573a.188.188,0,0,1-.048.261A.191.191,0,0,1,1249.1,1214.079Zm-7.645-11.147a.188.188,0,0,1-.155-.082l-3.823-5.573a.188.188,0,1,1,.31-.212l3.822,5.573a.188.188,0,0,1-.048.261A.185.185,0,0,1,1241.459,1202.932Zm-7.645-11.146a.189.189,0,0,1-.156-.082l-3.823-5.574a.188.188,0,1,1,.31-.212l3.822,5.573a.188.188,0,0,1-.048.261A.192.192,0,0,1,1233.814,1191.786Z" transform="translate(-999.801 -1041.732)" fill="rgba(249,195,61,0.2)"/>
            <path id="Path_487" data-name="Path 487" d="M1121.765,1028.419a.186.186,0,0,1-.155-.081l-3.823-5.573a.188.188,0,0,1,.31-.212l3.823,5.574a.187.187,0,0,1-.155.293Zm-7.645-11.146a.186.186,0,0,1-.155-.082l-3.823-5.573a.188.188,0,1,1,.31-.212l3.822,5.573a.188.188,0,0,1-.155.294Zm-7.645-11.147a.187.187,0,0,1-.155-.082l-3.823-5.573a.188.188,0,0,1,.31-.213l3.822,5.573a.188.188,0,0,1-.154.294Zm-7.646-11.147a.187.187,0,0,1-.155-.082l-3.823-5.573a.188.188,0,1,1,.309-.212l3.823,5.573a.188.188,0,0,1-.155.294Zm-7.645-11.147a.186.186,0,0,1-.154-.082l-3.823-5.573a.188.188,0,0,1,.31-.212l3.823,5.573a.188.188,0,0,1-.155.294Zm-7.646-11.147a.188.188,0,0,1-.155-.082l-3.823-5.573a.188.188,0,0,1,.31-.212l3.822,5.573a.187.187,0,0,1-.048.261A.19.19,0,0,1,1083.537,972.685Zm-7.645-11.147a.188.188,0,0,1-.155-.082l-3.822-5.573a.188.188,0,0,1,.309-.213l3.822,5.573a.188.188,0,0,1-.154.294Zm-7.646-11.147a.19.19,0,0,1-.156-.082l-3.822-5.573a.188.188,0,0,1,.31-.213l3.822,5.573a.188.188,0,0,1-.048.261A.191.191,0,0,1,1068.247,950.392Zm-7.646-11.147a.187.187,0,0,1-.155-.081l-3.823-5.573a.188.188,0,1,1,.31-.213l3.823,5.573a.189.189,0,0,1-.048.261A.191.191,0,0,1,1060.6,939.244Z" transform="translate(-891.624 -884.011)" fill="rgba(249,195,61,0.2)"/>
            <path id="Path_488" data-name="Path 488" d="M876.955,856.168l-2.167-1.487L910.9,802.034l33.422,48.729-2.167,1.487L910.9,806.681Z" transform="translate(-778.081 -802.034)" fill="rgba(249,195,61,0.2)"/>
            <rect id="Rectangle_1643" data-name="Rectangle 1643" width="62.382" height="2.628" transform="translate(39.504 136.05) rotate(-55.557)" fill="rgba(249,195,61,0.2)"/>
            <rect id="Rectangle_1644" data-name="Rectangle 1644" width="41.247" height="2.628" transform="translate(16.174 170.065) rotate(-55.557)" fill="rgba(249,195,61,0.2)"/>
          </g>
          <path id="Path_489" data-name="Path 489" d="M789.707,1096.069l-.415-.206-108.553-53.629L789.707,883.36l108.969,158.874Zm-106.2-54.558,106.2,52.464,106.2-52.464-106.2-154.832Z" transform="translate(-619.455 -810.009)" fill="rgba(249,195,61,0.2)" opacity="0.1"/>
          <path id="Path_490" data-name="Path 490" d="M822.918,1120.742l-89-43.971.368-.536,88.635-129.228,89,129.764-.582.288Zm-87.339-44.406,87.339,43.149,87.339-43.149L822.918,949Z" transform="translate(-652.665 -849.759)" fill="rgba(249,195,61,0.2)" opacity="0.08"/>
          <path id="Path_491" data-name="Path 491" d="M858.9,1147.472l-67.373-33.285,67.373-98.229,67.374,98.229Zm-65.709-33.72,65.709,32.463,65.71-32.463-65.71-95.8Z" transform="translate(-688.644 -892.821)" fill="rgba(249,195,61,0.2)" opacity="0.06"/>
          <path id="Path_492" data-name="Path 492" d="M901.331,1179l-41.861-20.681,41.861-61.034,41.862,61.034Zm-40.2-21.115,40.2,19.859,40.2-19.859-40.2-58.608Z" transform="translate(-731.079 -943.612)" fill="rgba(249,195,61,0.2)" opacity="0.04"/>
          <path id="Path_493" data-name="Path 493" d="M938.232,1206.413l-19.678-9.721L938.232,1168l19.677,28.689Zm-19.123-9.866,19.123,9.447,19.123-9.447-19.123-27.88Z" transform="translate(-767.979 -987.778)" fill="rgba(249,195,61,0.2)" opacity="0.03"/>
        </g>
      </g>
    </g>
    <g id="Group_919" data-name="Group 919" transform="translate(11845 -1878)">
      <g id="Group_220-2" data-name="Group 220" transform="translate(-141 -82)">
        <g id="Group_219-2" data-name="Group 219">
          <rect id="Rectangle_1639-2" data-name="Rectangle 1639" width="81.758" height="3.755" transform="matrix(0.566, -0.825, 0.825, 0.566, 39.766, 190.246)" fill="rgba(255,87,44,0.4)"/>
          <path id="Path_472-2" data-name="Path 472" d="M582.176,1334.75l-64.657-31.943,19.093-27.838,3.1,2.124-16.643,24.266,60.774,30.026Z" transform="translate(-517.519 -1054.582)" fill="rgba(255,87,44,0.4)"/>
          <path id="Path_473-2" data-name="Path 473" d="M913.258,1539.022l-34.691-17.139,1.663-3.367,33.029,16.317,31.57-15.6,1.663,3.366Z" transform="translate(-743.005 -1206.687)" fill="rgba(255,87,44,0.4)"/>
          <path id="Path_474-2" data-name="Path 474" d="M1326.238,1275.548l-1.663-3.367,27.907-13.787-34.36-50.095,3.1-2.124,36.81,53.667Z" transform="translate(-1017.523 -1011.619)" fill="rgba(255,87,44,0.4)"/>
          <path id="Path_475-2" data-name="Path 475" d="M872.684,745.618l-3.1-2.124L907.65,688l37.311,54.4-3.1,2.124L907.65,694.638Z" transform="translate(-737.398 -688)" fill="rgba(255,87,44,0.4)"/>
          <rect id="Rectangle_1640-2" data-name="Rectangle 1640" width="3.755" height="88.993" transform="matrix(0.443, -0.897, 0.897, 0.443, 61.167, 264.623)" fill="rgba(255,87,44,0.4)"/>
          <path id="Path_476-2" data-name="Path 476" d="M1280.286,1269.6l-1.663-3.366,29.3-14.474-31.846-46.431,3.1-2.124,34.3,50Z" transform="translate(-991.262 -1009.766)" fill="rgba(255,87,44,0.4)"/>
          <rect id="Rectangle_1641-2" data-name="Rectangle 1641" width="3.755" height="140.062" transform="matrix(0.825, -0.566, 0.566, 0.825, 205.588, 80.063)" fill="rgba(255,87,44,0.4)"/>
          <g id="Group_218-2" data-name="Group 218" transform="translate(37.436 42.816)">
            <g id="Group_216-2" data-name="Group 216" transform="translate(0 170.62)">
              <path id="Path_477-2" data-name="Path 477" d="M709.957,1368.367a.187.187,0,0,1-.083-.019l-3.029-1.5a.188.188,0,1,1,.166-.336l3.03,1.5a.188.188,0,0,1-.083.356Z" transform="translate(-673.129 -1325.179)" fill="rgba(255,87,44,0.4)"/>
              <path id="Path_478-2" data-name="Path 478" d="M660.255,1343.812a.179.179,0,0,1-.083-.02l-6.1-3.012a.188.188,0,1,1,.166-.336l6.1,3.012a.188.188,0,0,1-.083.356Zm-12.2-6.025a.187.187,0,0,1-.083-.02l-6.1-3.012a.188.188,0,0,1,.166-.337l6.1,3.013a.188.188,0,0,1-.084.356Z" transform="translate(-632.556 -1305.134)" fill="rgba(255,87,44,0.4)"/>
              <path id="Path_479-2" data-name="Path 479" d="M620.531,1319.625a.191.191,0,0,1-.083-.019l-3.224-1.593,2.034-2.965a.188.188,0,0,1,.31.213l-1.789,2.608,2.836,1.4a.188.188,0,0,1-.083.356Z" transform="translate(-617.224 -1292.998)" fill="rgba(255,87,44,0.4)"/>
              <path id="Path_480-2" data-name="Path 480" d="M634.421,1287.676a.185.185,0,0,1-.106-.033.187.187,0,0,1-.048-.261l4.385-6.394a.188.188,0,1,1,.31.212l-4.385,6.394A.187.187,0,0,1,634.421,1287.676Z" transform="translate(-627.847 -1271.726)" fill="rgba(255,87,44,0.4)"/>
              <path id="Path_481-2" data-name="Path 481" d="M657.781,1259.617a.187.187,0,0,1-.154-.294l1.911-2.787a.188.188,0,1,1,.31.212l-1.911,2.787A.187.187,0,0,1,657.781,1259.617Z" transform="translate(-642.436 -1256.455)" fill="rgba(255,87,44,0.4)"/>
            </g>
            <g id="Group_217-2" data-name="Group 217" transform="translate(36.64 213.432)">
              <path id="Path_482-2" data-name="Path 482" d="M885.966,1455.323a.186.186,0,0,1-.083-.02l-3.03-1.5a.188.188,0,0,1,.166-.337l3.03,1.5a.188.188,0,0,1-.083.356Z" transform="translate(-819.693 -1422.298)" fill="rgba(255,87,44,0.4)"/>
              <path id="Path_483-2" data-name="Path 483" d="M787.515,1406.685a.19.19,0,0,1-.083-.02l-6.669-3.3a.188.188,0,1,1,.166-.336l6.669,3.3a.188.188,0,0,1-.083.356Zm-13.339-6.591a.186.186,0,0,1-.083-.019l-6.669-3.295a.188.188,0,1,1,.166-.337l6.669,3.3a.187.187,0,0,1-.083.355Zm-13.339-6.589a.194.194,0,0,1-.083-.019l-6.669-3.3a.188.188,0,0,1,.166-.337l6.669,3.3a.188.188,0,0,1-.083.356Zm-13.339-6.59a.2.2,0,0,1-.083-.02l-6.669-3.3a.188.188,0,0,1,.166-.337l6.67,3.295a.188.188,0,0,1-.083.357Z" transform="translate(-730.941 -1378.452)" fill="rgba(255,87,44,0.4)"/>
              <path id="Path_484-2" data-name="Path 484" d="M718.026,1372.353a.194.194,0,0,1-.083-.02l-3.03-1.5a.188.188,0,0,1,.166-.337l3.03,1.5a.188.188,0,0,1-.083.356Z" transform="translate(-714.808 -1370.481)" fill="rgba(255,87,44,0.4)"/>
            </g>
            <path id="Path_485-2" data-name="Path 485" d="M920.253,1465.5l-30.485-15.061,1.164-2.357,29.321,14.486,37.5-18.524,1.164,2.356Z" transform="translate(-787.437 -1202.991)" fill="rgba(255,87,44,0.4)"/>
            <rect id="Rectangle_1642-2" data-name="Rectangle 1642" width="53.676" height="2.628" transform="translate(189.733 231.457) rotate(-26.29)" fill="rgba(255,87,44,0.4)"/>
            <path id="Path_486-2" data-name="Path 486" d="M1242.127,1248.86a.187.187,0,0,1-.084-.356l6.059-2.994a.188.188,0,1,1,.167.337l-6.06,2.994A.182.182,0,0,1,1242.127,1248.86Zm12.118-5.987a.187.187,0,0,1-.083-.356l6.059-2.993a.188.188,0,1,1,.166.336l-6.059,2.994A.186.186,0,0,1,1254.245,1242.873Zm10.15-6.5a.189.189,0,0,1-.155-.082l-3.822-5.573a.188.188,0,0,1,.31-.212l3.823,5.573a.189.189,0,0,1-.049.261A.183.183,0,0,1,1264.4,1236.372Zm-7.645-11.147a.185.185,0,0,1-.155-.082l-3.822-5.573a.188.188,0,1,1,.309-.213l3.823,5.573a.188.188,0,0,1-.155.294Zm-7.646-11.146a.187.187,0,0,1-.155-.082l-3.823-5.574a.188.188,0,0,1,.31-.212l3.822,5.573a.188.188,0,0,1-.048.261A.191.191,0,0,1,1249.1,1214.079Zm-7.645-11.147a.188.188,0,0,1-.155-.082l-3.823-5.573a.188.188,0,1,1,.31-.212l3.822,5.573a.188.188,0,0,1-.048.261A.185.185,0,0,1,1241.459,1202.932Zm-7.645-11.146a.189.189,0,0,1-.156-.082l-3.823-5.574a.188.188,0,1,1,.31-.212l3.822,5.573a.188.188,0,0,1-.048.261A.192.192,0,0,1,1233.814,1191.786Z" transform="translate(-999.801 -1041.732)" fill="rgba(255,87,44,0.4)"/>
            <path id="Path_487-2" data-name="Path 487" d="M1121.765,1028.419a.186.186,0,0,1-.155-.081l-3.823-5.573a.188.188,0,0,1,.31-.212l3.823,5.574a.187.187,0,0,1-.155.293Zm-7.645-11.146a.186.186,0,0,1-.155-.082l-3.823-5.573a.188.188,0,1,1,.31-.212l3.822,5.573a.188.188,0,0,1-.155.294Zm-7.645-11.147a.187.187,0,0,1-.155-.082l-3.823-5.573a.188.188,0,0,1,.31-.213l3.822,5.573a.188.188,0,0,1-.154.294Zm-7.646-11.147a.187.187,0,0,1-.155-.082l-3.823-5.573a.188.188,0,1,1,.309-.212l3.823,5.573a.188.188,0,0,1-.155.294Zm-7.645-11.147a.186.186,0,0,1-.154-.082l-3.823-5.573a.188.188,0,0,1,.31-.212l3.823,5.573a.188.188,0,0,1-.155.294Zm-7.646-11.147a.188.188,0,0,1-.155-.082l-3.823-5.573a.188.188,0,0,1,.31-.212l3.822,5.573a.187.187,0,0,1-.048.261A.19.19,0,0,1,1083.537,972.685Zm-7.645-11.147a.188.188,0,0,1-.155-.082l-3.822-5.573a.188.188,0,0,1,.309-.213l3.822,5.573a.188.188,0,0,1-.154.294Zm-7.646-11.147a.19.19,0,0,1-.156-.082l-3.822-5.573a.188.188,0,0,1,.31-.213l3.822,5.573a.188.188,0,0,1-.048.261A.191.191,0,0,1,1068.247,950.392Zm-7.646-11.147a.187.187,0,0,1-.155-.081l-3.823-5.573a.188.188,0,1,1,.31-.213l3.823,5.573a.189.189,0,0,1-.048.261A.191.191,0,0,1,1060.6,939.244Z" transform="translate(-891.624 -884.011)" fill="rgba(255,87,44,0.4)"/>
            <path id="Path_488-2" data-name="Path 488" d="M876.955,856.168l-2.167-1.487L910.9,802.034l33.422,48.729-2.167,1.487L910.9,806.681Z" transform="translate(-778.081 -802.034)" fill="rgba(255,87,44,0.4)"/>
            <rect id="Rectangle_1643-2" data-name="Rectangle 1643" width="62.382" height="2.628" transform="translate(39.504 136.05) rotate(-55.557)" fill="rgba(255,87,44,0.4)"/>
            <rect id="Rectangle_1644-2" data-name="Rectangle 1644" width="41.247" height="2.628" transform="translate(16.174 170.065) rotate(-55.557)" fill="rgba(255,87,44,0.4)"/>
          </g>
          <path id="Path_489-2" data-name="Path 489" d="M789.707,1096.069l-.415-.206-108.553-53.629L789.707,883.36l108.969,158.874Zm-106.2-54.558,106.2,52.464,106.2-52.464-106.2-154.832Z" transform="translate(-619.455 -810.009)" fill="rgba(255,87,44,0.4)" opacity="0.1"/>
          <path id="Path_490-2" data-name="Path 490" d="M822.918,1120.742l-89-43.971.368-.536,88.635-129.228,89,129.764-.582.288Zm-87.339-44.406,87.339,43.149,87.339-43.149L822.918,949Z" transform="translate(-652.665 -849.759)" fill="rgba(255,87,44,0.4)" opacity="0.08"/>
          <path id="Path_491-2" data-name="Path 491" d="M858.9,1147.472l-67.373-33.285,67.373-98.229,67.374,98.229Zm-65.709-33.72,65.709,32.463,65.71-32.463-65.71-95.8Z" transform="translate(-688.644 -892.821)" fill="rgba(255,87,44,0.4)" opacity="0.06"/>
          <path id="Path_492-2" data-name="Path 492" d="M901.331,1179l-41.861-20.681,41.861-61.034,41.862,61.034Zm-40.2-21.115,40.2,19.859,40.2-19.859-40.2-58.608Z" transform="translate(-731.079 -943.612)" fill="rgba(255,87,44,0.4)" opacity="0.04"/>
          <path id="Path_493-2" data-name="Path 493" d="M938.232,1206.413l-19.678-9.721L938.232,1168l19.677,28.689Zm-19.123-9.866,19.123,9.447,19.123-9.447-19.123-27.88Z" transform="translate(-767.979 -987.778)" fill="rgba(255,87,44,0.4)" opacity="0.03"/>
        </g>
      </g>
    </g>
  </g>
</svg>
